<mxfile host="app.diagrams.net" agent="Mozilla/5.0 (X11; Linux x86_64; rv:133.0) Gecko/20100101 Firefox/133.0" version="25.0.1">
  <diagram name="Page-1" id="WV7XOXpLy6lAbu3cQXuf">
    <mxGraphModel dx="1434" dy="778" grid="1" gridSize="10" guides="1" tooltips="1" connect="1" arrows="1" fold="1" page="1" pageScale="1" pageWidth="1169" pageHeight="827" math="0" shadow="0">
      <root>
        <mxCell id="0" />
        <mxCell id="1" parent="0" />
        <mxCell id="LYwdU9FZkqODLNg3qWdJ-8" value="" style="rounded=0;whiteSpace=wrap;html=1;fillColor=none;dashed=1;" parent="1" vertex="1">
          <mxGeometry x="350" y="130" width="510" height="380" as="geometry" />
        </mxCell>
        <mxCell id="LYwdU9FZkqODLNg3qWdJ-17" value="" style="rounded=0;whiteSpace=wrap;html=1;fillColor=none;dashed=1;" parent="1" vertex="1">
          <mxGeometry x="380" y="167.5" width="430" height="305" as="geometry" />
        </mxCell>
        <mxCell id="LYwdU9FZkqODLNg3qWdJ-15" style="edgeStyle=orthogonalEdgeStyle;rounded=0;orthogonalLoop=1;jettySize=auto;html=1;exitX=1;exitY=0.5;exitDx=0;exitDy=0;entryX=-0.009;entryY=0.408;entryDx=0;entryDy=0;entryPerimeter=0;" parent="1" source="LYwdU9FZkqODLNg3qWdJ-1" edge="1">
          <mxGeometry relative="1" as="geometry">
            <mxPoint x="239.3699999999999" y="271.9000000000001" as="targetPoint" />
          </mxGeometry>
        </mxCell>
        <mxCell id="LYwdU9FZkqODLNg3qWdJ-1" value="&lt;div&gt;METU Official Website&lt;/div&gt;" style="whiteSpace=wrap;html=1;aspect=fixed;rounded=1;shadow=1;" parent="1" vertex="1">
          <mxGeometry x="100" y="231.34" width="80" height="80" as="geometry" />
        </mxCell>
        <mxCell id="LYwdU9FZkqODLNg3qWdJ-35" style="edgeStyle=orthogonalEdgeStyle;rounded=0;orthogonalLoop=1;jettySize=auto;html=1;exitX=0.995;exitY=0.428;exitDx=0;exitDy=0;entryX=0;entryY=0.5;entryDx=0;entryDy=0;exitPerimeter=0;" parent="1" target="LYwdU9FZkqODLNg3qWdJ-23" edge="1">
          <mxGeometry relative="1" as="geometry">
            <Array as="points" />
            <mxPoint x="309.6500000000001" y="273.29999999999995" as="sourcePoint" />
          </mxGeometry>
        </mxCell>
        <mxCell id="LYwdU9FZkqODLNg3qWdJ-18" value="" style="image;sketch=0;aspect=fixed;html=1;points=[];align=center;fontSize=12;image=img/lib/mscae/Docker.svg;" parent="1" vertex="1">
          <mxGeometry x="745" y="420" width="50" height="41" as="geometry" />
        </mxCell>
        <mxCell id="LYwdU9FZkqODLNg3qWdJ-21" value="" style="group" parent="1" vertex="1" connectable="0">
          <mxGeometry x="660" y="228.34000000000003" width="135" height="90.00000000000003" as="geometry" />
        </mxCell>
        <mxCell id="LYwdU9FZkqODLNg3qWdJ-19" value="" style="shape=image;verticalLabelPosition=bottom;labelBackgroundColor=default;verticalAlign=top;aspect=fixed;imageAspect=0;image=https://streamlit.io/images/brand/streamlit-logo-secondary-colormark-darktext.png;" parent="LYwdU9FZkqODLNg3qWdJ-21" vertex="1">
          <mxGeometry x="19.420000000000073" y="21.669999999999987" width="96.15" height="56.25" as="geometry" />
        </mxCell>
        <mxCell id="LYwdU9FZkqODLNg3qWdJ-20" value="&lt;b&gt;User Interface&lt;/b&gt;" style="rounded=1;whiteSpace=wrap;html=1;fillColor=none;verticalAlign=top;" parent="LYwdU9FZkqODLNg3qWdJ-21" vertex="1">
          <mxGeometry width="135" height="90" as="geometry" />
        </mxCell>
        <mxCell id="LYwdU9FZkqODLNg3qWdJ-29" style="edgeStyle=orthogonalEdgeStyle;rounded=0;orthogonalLoop=1;jettySize=auto;html=1;exitX=1;exitY=0.25;exitDx=0;exitDy=0;" parent="1" source="LYwdU9FZkqODLNg3qWdJ-23" target="LYwdU9FZkqODLNg3qWdJ-20" edge="1">
          <mxGeometry relative="1" as="geometry">
            <Array as="points">
              <mxPoint x="630" y="256" />
              <mxPoint x="630" y="256" />
            </Array>
          </mxGeometry>
        </mxCell>
        <mxCell id="LYwdU9FZkqODLNg3qWdJ-33" style="edgeStyle=orthogonalEdgeStyle;rounded=0;orthogonalLoop=1;jettySize=auto;html=1;exitX=0;exitY=0.75;exitDx=0;exitDy=0;entryX=1;entryY=0.75;entryDx=0;entryDy=0;" parent="1" source="LYwdU9FZkqODLNg3qWdJ-20" target="LYwdU9FZkqODLNg3qWdJ-23" edge="1">
          <mxGeometry relative="1" as="geometry">
            <Array as="points">
              <mxPoint x="660" y="291" />
              <mxPoint x="580" y="291" />
            </Array>
          </mxGeometry>
        </mxCell>
        <mxCell id="LYwdU9FZkqODLNg3qWdJ-9" value="" style="shape=image;verticalLabelPosition=bottom;labelBackgroundColor=default;verticalAlign=top;aspect=fixed;imageAspect=0;image=https://logos-world.net/wp-content/uploads/2021/02/Google-Cloud-Logo.png;clipPath=inset(33.43% 0% 34.62% 0%);" parent="1" vertex="1">
          <mxGeometry x="770.0000000000001" y="490.005" width="87.5" height="15.75" as="geometry" />
        </mxCell>
        <mxCell id="LYwdU9FZkqODLNg3qWdJ-28" value="" style="group;shadow=1;" parent="1" vertex="1" connectable="0">
          <mxGeometry x="410" y="238.34" width="160" height="70" as="geometry" />
        </mxCell>
        <mxCell id="LYwdU9FZkqODLNg3qWdJ-23" value="&lt;b&gt;RAG Framework&lt;br&gt;&lt;/b&gt;" style="rounded=1;whiteSpace=wrap;html=1;fillColor=none;verticalAlign=top;" parent="LYwdU9FZkqODLNg3qWdJ-28" vertex="1">
          <mxGeometry width="160" height="70" as="geometry" />
        </mxCell>
        <mxCell id="LYwdU9FZkqODLNg3qWdJ-27" value="" style="shape=image;verticalLabelPosition=bottom;labelBackgroundColor=default;verticalAlign=top;aspect=fixed;imageAspect=0;image=data:image/png,iVBORw0KGgoAAAANSUhEUgAABQAAAADKCAYAAAD6r+2CAAAgAElEQVR42uydBVxU2ffA38zQ3dICIiiCimBjoSJ2d7coqCiIIAgoIgiI3egaK7rYHWCAYCAgJS0h3Z0T/3uXcf/8XHdXYQYmzvfzOct7s86d9867ce55955DYjAYBMAaUjIzKS0tLRLoUAyJKJakjAzJbZ6emuhYGokBEvz/VZAoM78mgqQPaA8AfooyJNlIvnVcqUiqkBQhyXPbvDl9cL9+lei4FkkTkgYymdxooKtbA6oDAAAAAAAAAAAA+BUSOADbz53nzyUbmpqwIw879FS9Tp1SLK+q6omOuyPRQKKORBE0BQCdCo1odQyWIMkVFhLK32trm4COi7GQSaSi+ZMn54KaAAAAAAAAAAAAAH4BHIC/QHllpYDf+fO66LAXkt5Bjx71bmhqUkXHakzBq/tIoCkA4DhaiNZVgoVkEqlwyYwZGeg4DUk8lr1bt1aQyWTQEgAAAAAAAAAAAMCTgAPwP3j5/r3goQsX8NbdMU3NzWMS09LwCj9ppuCtvuDwAwDug46kGkkFkkpjA4OPJBLp5eq5c0OmjR1bDOoBAAAAAAAAAAAAeAlwALahsamJlJ2fj1fxKdh6eGgmZ2bOptPp02k0Gt7iS2YKOPwAgPfAHSGdQqHgmIF4VeDNEaamIU5WVgXouFJXU7MJ/T/QEgAAAAAAAAAAAMCVgAMQ8TE+Xjg7P18jJz+//8Hz54ehjyYiwVt9BaCKAADfglcHvsGy19b2g56WVuKwAQNKQC0AAAAAAAAAAAAAt8HXDsDsvDzxCzdvDg2NjByXlpVlgj4yRSID1QIAgO9I11RR+TDezOwtOn62dcWKdBkpKTqoBQAAAAAAAAAAAOAG+NIBePD8eZmI6OhJNXV1iz6np/chWrP4CkN1AADgX8CdJY4bmN3fwCDU1NDwsquNzQdQCwAAAAAAAAAAAMDp8I0DMCc/X+JDXJy288GDM5qam5dSaTRN9LEQATH9AAD4dWgUMrlBRFg4Eh0fO+Ph8V5XS6tIVUmJCqoBAAAAAAAAAAAAOA2edwCmfPkim5KZ2W/XwYOTK6ur56GPNOGxAwDAYt7raGic2r569Zv+vXtnaaqqgiMQAAAAAAAAAAAA4Bh41gFYVVMjdPzKlbGR8fHTPsbHWxKtjj8yPHIAANhEPZLw0YMHP+rdo8dtJyurbFAJAAAAAAAAAAAAwAnwpAPQ8+RJnY8JCa6RcXEj0ak6Adl8AQDoPCqRpI0wNT09evDgoHULFlSDSgAAAAAAAAAAAICuhGccgHlFRUIv373T9T5zZmVtff0CKpWKE3tQ4BEDANBFNAgJCn4WExX18XN0DBk/fHgZiURigFoAAAAAAAAAAACAzoYnHIDvPn3qvnjbtunNLS3r0akBPFYAADiIZiRPj7u5He6upvahX69eNaASAAAAAAAAAAAAoDPhagdgfGqq5JPQ0LFBjx8vLyguxnH+ROCRAgDAoeTpa2v/PmHkyN/nTZyY0F1NjQ4qAQAAAAAAAAAAADoDrnUALt+xo3tBcfH2pIyMGehUjYAEHwAAcD6NSOKMDQx+u+rvHyAhJtYMKgEAAAAAAAAAAADYDVc5ABsaG0nVdXViNu7uY97GxBxHHykjEYLHCAAAF4E73QYFWdkHw01MXLzt7bPEwREIAAAAAAAAAAAAsBGucQBW1dQIep850+fynTsb0ekiJOLw+AAA4GJw55s608Li8PRx44LMTEzKhIWEIEkIAAAAAAAAAAAAwHK4wgF4+c4d0YTU1NlX79+3RqemBGT3BQCAd6hEcsN25coj21atigd1AAAAAAAAAAAAAKyG4x2AZ//4Q9EvIGBLXX39CqI11h8AAACvQRMSFHxvs2zZnq0rVjwFdQAAAAAAAAAAAACshGMdgFQqlfLbrVv9fM6edalvbLRAH4nB4wIAgIdhiAgJ5crLyh53srI6N2XMmHIymQxbggEAAAAAAAAAAIAOw5EOwA9xccJRCQmzPU+edEWnevCYAADgI1qQ3Dzs4rJ/loVFHKgDAAAAAAAAAAAA6Cgc5wB8EhoqbefltbaqpmYnOpWHRwQAAD8iJCj4evvq1W59e/V6Y2ZiQgWNAAAAAAAAAAAAAO2FoxyAj1+/7r778GGbwpKStehUCh4PAAB8DO6cY3U0NHy8d+y4NaR//0ZQCQAAAAAAAAAAANAeOMIBiK6B9PLdux5bPTz2VFRXz0AficKjAQAAIOhIShTk5Dwv+/icN9TTqwWVAAAAAAAAAAAAAL9KlzsAkzMyKF9yc/uvd3Y+g04HwCMBAAD4G00UMvnkg7NnPQz19MpAHQAAAAAAAAAAAMCv0KUOwMj4eIEd3t4W6dnZzuh0KDwOAACAf4Sh2q2bv9/Onb5mpqYFoA4AAAAAAAAAAADgZyF31Q9/SkqiOPr6TkzPzvZCp4PhUQAAAPwrpPyionVOfn57wqOje4I6AAAAAAAAAAAAgJ+eUHbFCsDsvDzK3M2bxxUUF/ujU32iCx2RAAAAXEZTN3n5pxe8vbcY6etngToAAAAAAAAAAACA/6LTHYCpmZmUqevWTa5vbDyNTpXhEQAAALSLiEfnzi0GJyAAAAAAAAAAAADwX3TqyrvIuDiBNU5OE+obG48Q4PwDAADoCMNW7tx55M3HjwagCgAAAAAAAAAAAODf6DQHYFRCgoCjr+/kzNxcb3SqCaoHAADoGEWlpRMc/fx2hEVGqoI2AAAAAAAAAAAAgH9CoLN+KDM3d3hKZqYnOuyFhMSn+maQSKR69PcNkg9I8tSVlT+f3bev9ts/KC4rE1q+Y4cROsQTekMkRgwGQ5/5v0lQZQEAaINQVm7unG3791cEeHru69urVymoBAAAAAAAAAAAAPieTokB+ODly6FWu3efQIf9+VDHzUi+qisrh8lKS996ePbsfRLp5/14VTU1pIW2ttgZOBbJlNTMzH5Nzc14+7QUVF8AANpw/t7p09uMDQyqQBUAAAAAAAAAAABAW9juAHwaFqa53tn5Fo1ON+FD/RYpyMoGWZiZnZ9taRk/qG9fakcL9Dl71vBzerpFcETEeHQ6AIkiASsDAQAgiCZ5GRnnY66up81MTWtAHQAAAAAAAAAAAMA32OoAvBMcrO5+5IhHaUXFMoL/nFQftq5YcbRPz563LEeOrGdlwcVlZZSnYWFqN548GRqdmLgAfTQDqjIAAIjS7qqqDh7btl0aPXgwFdQBAAAAAAAAAAAAYNjmAHwSGirt6Ou7q7SiYhM6FeMzvb7bvnq1w4aFCyNEhIXZNgnPzs8nl5aXq8ywslqITm0ISK4CAPwO7tBTHNat22a9dOljUAcAAAAAAAAAAACAYYsDMDY5WWz6+vU2NDrdGZ1K8JE+6WKiomFbV6zYvH7hwngyicTojB9toVLJT0JD9Zz8/Nwqq6unEvzncAUAoA1kMjlx37ZtVgumTAkXoFDooBEAAAAAAAAAAAD+huLm5sbSAhkMBunq/fuzImJicMFy/KRMIUHBHNuVK9dsXLw45lcSfXT4IZLJDH1t7VIlefkXkfHxjIbGxn7oYxGo3gDAn6B+WCkkIkJFvVu3V4Z6etWgEQAAAAAAAAAAAP6G5SsAj1+50svr9Om76FCP35QpLSm5PeHRo4NdeQ33X7wQtNmzZxuNRnNAp7JQxQEeoQlJCRKc4TaXaN3q2ha80hhnx5ZHIkNAYpw/ERMVPbTb2tph8bRpzaANzsT96NG5aBwezqLiEjYsWnRdWUEBksAAAAAAP0VldTXp0G+/4TlDN6aII1FDIsz8JzJM+6otGW2OG5m2GbbVirG95rRhQ7GQkBCDF/STmpkpfvX+/WnocDCL5otxtitXnoeaB3Cp3aqK7Fac3FWd2VcoIfnKnKOlSElIJGxbtaoONMW5CLCysKOXLkkfu3x5L8GHzj9EjM/OnUFdfRFTzc1bECe3eHjg053MQRsAuA2cOCcBSYSOhkaij4PDZ3TcgAQ7smr/oS/Dg5DIWmdnxfLKSiN0bIxkGBJVJGS+VGJDw7Ln4eFxi6dNuwBVijM5f+PGGDqdbsWi4u7OmzTpATgAAQAAgH8it7BQCM0T+qBDQyxNzc1GsUlJCuhYlGgNIyTItKkozK9gR+D3O4uq2hzTmLYZjWmrNaDyqsgUSgrR6iiMlJeR+XTGw4MrdyTkFBSIBAQFjUeHK1lRnpqy8i1wAALcxqnAQEM0p1gZGRc3Gu80YvYRgsx+o5Y5R6sQEhTMD4+ODpg3ceKd+ZMn14LmOA+WOQCrampEYpOTd9U3Nk7mQz3SuikonOrfu3cBJ1zMDAuLaiEhobM7fXyU0XNZz2yYAMCp4DfE2OFXrqGikiAoKHhxmrl5qNWiRRW4bZHJZJqIsPBPx7F7FxSEVzY/YRquAqsdHfXyS0qWo7YwqqyiAr+tkiVY/PKDg5F79f79DrcjR3Lt164NERcVhXiAAAAAAMAnYGdfc3Oz3JOwMKXDFy8OQR+NpdPpoxqbmqSJ1pejFObfX905If29vdH25GMCfodLjEKC7Q4aiURq1rewiEXHEUiCL3p7ZyjJy5dJS0nVycvI0OBJAQAHTtAYDOLx69eatp6ea1A/spZKoykS//9i4Ef9gWJzS4veh9jYYTGJida7Dx/2uuLr+3xg376wIpCDYMkkGE2qBfeeODHjaVjYPII/nU3pe21t41QUFamccDFkEomYMmZMOWqox/YeP65fWlExgeDTFVAAx1OsKCcXO2zAgGB0/NBl06bkbgoKHTIERUVEsEORxpTmwEOHPqG/n16+eyd18+nT0ejv5Ora2jHos+5IhHhdwTQarVdAUNDWIf37p1uOHJkJVQ4AAAAAeJfyykpK2MePKuhQ3+v0aaPcwsKZ6HgA0fmJGSlMEWQwGCL1DQ0j0DEWh7mbN2dhu2/csGHvZowf/5lCoaSguQs4CQCAgwiOiDBe7+KyDx1O/MWvCrVQqYORXFxqb+913svr6DBjY1gNyCF02AHY3NJCuB4+rHc3JMSaOaHmR/AbrWxOu6hZEyZkXHv4cH9pRYUBHz8bgDPBWxRfWC9deqOPru6bKebmWez+wTFDhlQjuffHo0dPy6uqRkQnJo57/Pr1PGbb4HUH+agbT54sH2JsfEBGUrIeqh8AAAAA8B6nAgP1E9PSptx5/twMnZoiwY5ACgdeqhaSTcERESuRJAtQKO9jk5IemhoZvZ8wYkQpPEkA6FruhYQYuvj7+6JD8w4UI1VXX++43dOTtm/btlPmQ4dCYkIOgBUOQKG7ISFr0eEgPtVh9UwLi3eD+vYt4cSLc7G2jphjbe1T39BwDKo7wAHg1XmfZ02Y4Dd34sTggUZGecJCQp26LXXepEk4SHVwYUnJh5aWlnvI8FyGztcRvJ04RPxpWNimxqamsCt+fiFQDQEAAACAd7j/4oX21Xv3VkclJk5oaGzURx9Jcsml45iDA6g0mvGpwMBJKiEhcb/dvHlxv53dIy119QZ4sgDQ+Tx69UrV/ehRh/KqKjMWFCeZW1i4edfBg0V+jo6/DxswgAoa7lo6tOqlrKKCNHPjRkt0iAOYC/Kh/hpEhYUfGerp/SEvI8ORldlIT4926/jxa+jwd6I1DgcAdAXY8Veh2q3b6TmWlube9vaXzExMvna2868tyoqK1Sfc3d8mPHq0FRmZM+RkZKKJ1gx2vIpCaGTkwdWOjt2gOgIAAAAAd1NaUSGcmJamZThpkvc2T8/QN1FROxoaG/GqP0kuvB38ErZ7QXHxZHQflyauWRM8w8rK8mtBgWxtfT2EMQKATiIyLk54q4fH0uKystkE60IlqWInYMqXLwOoVCoJtNy1dKhDdfb375mckeFB8EEcrR9QLiwkdNJm+fIN6+bPz+PkC1WSly83NjAIIFozcQFAZ9OCJHqgkZFV8MWLm/137SoWERbmiIDPOF6gtKRkY1hg4L1Te/bM1lJXP4s+LuPVB8FgMHrn5OdvS/7yRQSqJQAAAABwH2hiLvj49Wv9lQ4OGy1XrXpVVVOzo7GpCSc544XFGHhuKlZbVzcsKiHh9rB5807vOXbMHN2vJJ0O6xgAgJ1QqVQiPDpar6GpidV5HbDTb8Duw4dnZefni4Gmu76TbRfvPn2SSPnyZQM67MmHesufY2l5wGnDBnebpUurOP1iFeXkGAednD4OMTa+gU5hOT3QmTTp6+jc2bF27aZDzs43JcXFWzj1QocaG2d5btu2W0NFxRW3cR59HoLJX77Mu/H48WiomgAAAADAXdTU1Qm7HjmyYJ2z88lPSUk4OD8vx/jGLyvnBt6/fxLdr+vZP/6AeOYAwEYaGhspfgEBeNtvXzb9xBwkCqDprqXdDsCohIThadnZ05idMz9RPHfiRF/nTZtOrJo7l2sCWep2714z0MjoFgGrAIFOpJuCwm+HnZ3tbZYte6+pqsrxMR9GDBxYcdzN7ZyosPA2dJrDo49F/dHr1yvexsSoQw0FAAAAAO7A5+xZlTVOTr4PXrzwRqdjCNau0OHoaQwS64Pnz58+efXqcKgJAMA28K7OSQQL8kT8A1q7Dx0yBDV3Lb/sAMTLrx++eqV59NIlnPhDm8/0VTlu2DBfD1vbE/IyMjXcdvGbliyJGW5ico/g7ThnAGfQICctvf/uqVMOfXr2zOamCzc2MGiKCAq6edjFZam4mNgH9BGNx56NwNeCgimrnZwsM79+FYSqCgAAAACcCY1GIwpLS4X3nzplcSow8F5EdPR6ojWzL78hXN/QMN4vICBwwPTpNk/DwqToDAZUEABgLXheMJKN5VMi4+PNQc1dyy87AMurqgQ2uLhMqmtomEp0MIYgt43BoiIil0yNjI6KiYpypQNNXFSUNrhfv7NCQkK5UPUBNlKup6194I+jRw+odetWxY03oCArS51lYRHqYWu7TV5GBjsBeS3wjHhNbe1WNJHoCdUVAAAAADiToCdPlAbOnGlz4vffLzS3tJgS/Jl08a95a1Nzs0ZJebnvGicnt+A3bzShhgAA63gfGyuL/kix+WdgBWBXd6S/+oWr9+7ht0446y+/Jf6I3rpihd+mJUsaufkmbFeuzJKWkPgdqj7AJqoNdHWP+Tg4HNfX1q7k9puZY2kZbqSv74YOs3nwWfVxPXJkOVRZAAAAAOA8gh4/Vt7l54dtkF1IVEEjf4HnoJtsPT097794oQXqAADWgOYFup3wM6Kg6a7llx2Al+/eXUSwLzAkp1Jrv3btwXULFvDEyjlXG5srBG86NIAuRl1Z+aCfo+ORAX36lPDKPW1dseKFlISEI8GDW+dbqNQV+0+d0oGaCwAAAACcQ+CDBz33Hj/u29zSsgqdyoBG/oZQdW3tXLcjR9zBCQgAAPDz/JIDcPv+/f1Kyso28aGengw0MgoVoFB4YhvgsAEDciTFxQMI3ottBnQdjVISEl63T5zwNdTTK+OlGzMxNKT+ceTIXdRmcHbgZl66NzqdrhgeFeVe19AgAFUYAAAAALoWGo1G+uPRo97uR4/6VFRVzUcfCYNW/hGh4rKyBQ4HDng+CQ3VQTYNCVQCAO1HWlIyvRN+hgqa7lp+etKXlZcnmpaVZUWj05X5TEc1PTQ1g2WkpIp45YYU5eSajrm63lu+Y8csdNofmgHQQcp7amkdPufpeUhZUbGO1YXX1teToxMScDwKOaL1LbjkdwYxjgKNk/LU4msRFBQsHWpszFJHXZ+ePRt/P3jw4uY9e/RRX7iE4J0YPKTY5OTR+0+etPTYtu0BVGUAAAAA6DquPXxotNPHB2f5tQRt/BRCNXV1C9fu2iVyeu/eLZNGj/4KKgGA9nH90KEKg4kTa5hzLXYRAZruWn7aAXjzyZNBMZ8/jyb4L/hsxpLp02N69+jBU6vluqupZQzu1+/5+9jYPgR/BxQGOkZln549j3rZ25/Q0dCoZmXBL969E0xKT9cvKi0dceHmTSP0EY5LgQM+4zikbQPU4rZZgAQ76b+Ii4p+tlm27J2JoeGnIf37F7LqeowNDArnWFqe9Q0IwE5zLLzyplk5PjV11uf09AgDXd1yqNIAAAAA0PkEPX6s6+TrewAdTgBt/DIzt3l65tHodJep5uaVoA4AaBctSEKRTGbjb0SCmruWn3IAfkpKknz46hXO+qvNhzrCsfLSeO2memhq1o4cNOjp+9jY6ehUD5oC0A7oWurqfj4ODieN9PVZtu03IydH0PfcOdPY5OQlXwsKcMa73sS/v4miIFFnikldQwPd6/TpLN3u3RN66eg8FREWDvLftYslMQknjR79MTgi4irqE3GbEeeVcSA6MdE8Ljl5oIGu7lOo1gAAAADQufx+756e16lT++kMhgVoo30g+2+56+HDmXQ6/dj0ceOaQSMA8MvgdvOEYJ8D8IuTlVUCqLlr+c8YgGggIrJyc43SsrKwA5DfMv82TRgxInnepEk8+SZp+cyZYaMGDXpNwF58oB0DhJSEhPcfR474s8r519jURF5oa6uyYOtW7wcvX976WlCwFn08iPj1Zei4X9NJz86egsrxuvX06e2Nrq4ja+rqhFqoHavqPbW0WgL27z+lrKgYx2PPU8PrzJmZqZmZslC1AQAAAKBzoNHpxPWHD5X2nThhV1lTgyfdnLi7gMacK3wvnBYbXaKkvNwmLjl5BpVKJUPtAoBfQ1xMjHbExQX7BqLZUDwdL8oYNWhQEWi6a/nPFYD5RUWiNnv24AGJH1eJNUiIiWVJSUgwePHmpCUlm40NDE6++/RpXFNzszY0B+AnKdft3t3/ko/PIRUWxfzLLy4W3+bpOTI8KsoHnfZh0XVi40+SzmAMv//ixT0k5zctWXJs87JlWWKiou02WpXk5WsH9Omz79GrV7cI3nkpQi6rqJj1MT7+Nz1t7XdQxQEAAACA/cQlJ0vZeXnZocOVxC+EZmITePUPDueCFz5Uq3XrVq+pqoodfUnEj5OgySNRj09JodTW1+PQLCJEa6xmLF2RvAQ7T7XOXL9uJy4mlrlx8eKPIsLCDKhlAPCTkwEymUDzgBQtNbWArLw87Btg1cIA3A4j/Rwdr2mrq9eCpruW/xxobj17pob+zONT/eDBjqe91NtXr465+fTp1a8FBbugOQA/QbmRnt5hrx07TmqoqLCkA88rKpJ19vdfFh4VZYtOu7PpuqWR2By/ckWbzmDsc9qw4WNHCvO2t3/96NWrcHQ4hoeeraKDj8/ihVOnviORIJEeAAAAALATnLX2bnAwnmOtI7rO+VdPtDr40k2NjNKMDQwy0PEXJFlmJiYl5kOHNvxXAef++EM4v7hYk+ks6Imkx283b2q3UKkGzPPO3l1g7H/hwqpZEyZgR0Y11DQA+Hn69OzZ7LNz5z0nX9+hadnZuH9ixWKH4n69ep3toan5GTTc9fznYHP2+nUciFYXVMW77Fi79pzNnj1LidYECwDwTzTjlX/eO3awLOZffUODsN3+/dvfREXh7b5KndDfTT119aqKsKCgFXZ+t7cgMVHR+k1Llpw+fuUK3qIszkPPeJHP2bO7d6xbVwHVHQAAAADYx/7Tp40CgoKcidaXlJ0J3gWBs+U+sl66NFxPSysZHef01tUt76Wj88tJD9fMm9dE/H+89A/4P8YGBtJUKlX7/osXPZ6Hhw9BH80mOi+WPLb3FiJ75vlxN7dbUNMA4NcY0r9/rlGvXr5p2dnYgT+4g8U16uvoHPKyt7+BnYug3a7nXx2ALS0tZILB2ABq4m3Mhw7NFRQUPICe9xHiJ+JCAnwJTUZK6sBlX99D6srKLFn510KlUlY4ODi+jYnZSnSeE43CYDAGnQoM9EB/19uuXJlLoVB+uRAhQUG6manph+NXruBVgLwUsFsu5O3bVdtWrfITEBCAWg8AAAAAbGD/qVMS54OCvAj27Xz4oS2H7JfC7mpq3qf37n2IzsvUlJVrxEREWB7Lb6q5eRX682nEwIGxFVVVT0srKs4ttbObS6PRVlFpNLzggMLme5V+8PLlHnS/z/137aqBGgcAv4bjhg3xCampq7Nyc882t7QMakebxdt+axVkZX0uHjhwVK1btzrQKmfwr86eZfb28ytranrwsX5IP6rseUVF5KqaGp7ZIyclIUG9e/LkLXVl5UACEoIAf6eih6bm7ue//bafVc6/guJiuYVbt+57GxOzg+j8FXSkxqYmy8MXL/oGPnjQrd3tRlw8B+njGfHjuDhcy+f09IU7fX0VodoDAAAAAOspKi0VQ2OtK5pUd1YYkQY0Cf9oamjo8OjcOaMXly8f7aml9QVJFTucf21Bv8tAv1M71Ng4JT0kxMNrx45h6DqwYy6VaE0uwjbodLpeUkaG3deCAnijCQC/iLKCAj3k0qXExwEBUzVVVT3RR6k/6SfAjr9KVSWlV6itL3yG5o/g/OMs/tEB+DE+XrygpGQO0TVBXDkFQTx2tf0gKy9P3OHAgckHzp41b2hs5JkBxUhfv2Dl7NlnidY4IBAwF/hGWV99ff/jbm448209KwpEhpjCTl/f7e9jY3HMG9Eu7Pss38bELC2tqBBrTwF9e/WirZg1C2fJ+sJjzxy/mR8HVR8AAAAAWEthSQnZ5dChUa/ev59BtCbNYDd58jIyvq42Nktunzzpp6+j06UhPuZPmlSIrmPP6rlz16PTx0jY6RgQTExLm3P+xg1DqHkA0D70tLXL/Hft8kRznnUKsrJ4t2AYknzi7wsgcFtOERcVvYX+rfN+O7tlqK0/VJSTg8VFHMY/OrCehoX1y8jJ6UPw95ZQCaJNRtKyykqSw4EDgyKiow+iU1pVTc05YwODM2gQ44kAs6MGD37/8NWrE9GJidjLLwvNg+9p6KWj4+9lb3+qT8+e5awoELUZ7EDfHvbx4zoOqGPS90JC1jY0Ngaf8/T8hDNftYMEJJlIevHQc5f7EBs7/k1U1AMzExPYNgMAAAAALCIzN1f58evXK9ChDpt/Ck+632xbteo4suHuWpiZtXCSHiZvedIAACAASURBVOzWrHlNZzDyTgcGbkany5BIsemntEMjI2d/TEhIMjU0bIIaCAC/zqC+fRuRvB45aFBEeWUljguohecLxP8mCMELRfLFREVTp5qbF4LWOJcfOgAZDAaWUQQkhRAIjojQv/XsmcYsC4uvtXV1UhHR0YvQ53hbNM7c5RLy9u3EoMePzzhv3Ph42IAB3ybLDJxFk9GqzD+3Ch++eFH2aVjYEh0NjfMn3N05Mv21vrZ2I7q2Kwu2bOmflZe3HpoHX8OQk5E5ELB//xFNVVWWOIFQn0JatXPnzg9xcdZEq3OdE9B9Hh6+hkajbSaTyb+8DWaOpWVpeHR0zMt37/A2HhEeefYUNEHpn56V1dvMxOQDNAUAAAAA6Dh1DQ2UHd7eE9HhFIK9Cyzq0Tzkj22rVvluWLgwWURYmMZpuhASFGTYrliRPnP8eNcDZ86Uvnj3bjv6WJINPyWamplpmfn16x1TQ8MoqIUA0H7GDx+OXyR8ZgrApfzQAXg3JKTH6WvXsANQlN8VVFVT0yshNdXEwswsNy0rC2cpxVmsvsX/k6qtqzNPTEszX2hri5fUv0CCtwSm269Zk3Pt4UP1rwUF2IlqjsQMiXRDY6Mx+sxKQ0WlkRPvV61bt9qQy5ete5ibSzHvVQiaCd9Rr62u7n/n5ElvORmZBlYUWFhSIrvexcUxOjFxC4fVKWyAr5q0Zo3f84sXM3/1y/KysgxpSckIdLiG4B0HIMYwr6hoOJqsRIuLisLSfQAAAADoIClfvihl5eXh2Mdi7PoNMplcaqin5zfV3Nx/w8KFHL3iTVxMjIF3mFz08XFft2tX1ePQUJwUhR2hp0y3eXpONtLX/9xLR6cBaiIAAPzM394+VdfWkiKiogzQoTGo509Uz16/Pio+JUVq8969eLn+P21bxJ9jh9k+JNd9zp17+7WgIAgd+yGZjEQa/6MvX79aHvrttwkcXSnIZKrFiBGu6PARElguz1809u3V68YZD49TrHL+5eTnK9p7e++ITkxcS3CmQxm/6FjVge/HEeyNYdMVCJ4KDDT7nJ6uBE0CAAAAADrO5j17sB2kx8afKJgxbpzHw7NnvTjd+fc9R3bvPo7+/M7GecdUJJDgDAAAvudvKwCLy8pEAx88wKmeYeLXCs4CPPvs9etPG5uaurOgPKWohIQVb2NiooYaG+dyZKWgUAhve/t0UWFh57vBwfijSQSsBOQH8BbYCAszswO9evRgSd0sq6yUwgk/wiIjsdErw6k3XlhaOino8WP/uRMn/nKsw/mTJxeER0WVlJSXa/NYfRjMHAfyoWkAQPvZc+yYekNjI25LqkjUiNbM59i2wEnGvo97VYSkmtkflzHP85UVFXO3LF9eCdr8derq60keJ07g8UeH2aepE61bDfGq7W7f2Tf4ZU4x0Ro/DT8HHMeoRF5G5qvdmjXQF/4Hl+/ckfycno7reU+mjpWYdR3r/3vnSzWzfhNMnePjorXz56fraGjU85pufr93T6+sqmoJG38if8GUKQdcNm06y436ERQQaNmwcOHeU4GBuF+cxoaf6H/00iWz425uV3mhPjn7+0vRaDTcpykjUWG2MWFmn9Z2RwoO41PC7NPwGFKA+zUBAYG8vVu3lkCv9c9ExsUJ3Hr2TIk5bqsydfsthBEeR9rulGQw+7BvYZOwnvGcomj+pElf+hsYVINGeQ9HX19ppm3RjVlHvrVDpe/aYQNznGtm2hl52MYTERbOc7Wxyens6/7RFmB8IyPhkf4PGs/Dw52I1gy5HYWckZMzepunp0XA/v0XDXR1aZx4wwqysgy3zZs/NzQ1OT8LC8OOjX5QDXie8qHGxvsXTJ6cxKoCV+3cibf9biTYE9eFZVRWV3eLiI42nDtxYuivftfMxIQqLSmZVVJePojH6oOKw4EDwx8HBMQJCwnRoXkAwM8xe9Mmo+aWlqHo0AiJYXxqqgKaqIkwJwtiTNuLxDQSBb/7Og4P0sKcTDQxzxuQkVgfHB6OnVGRSOJVlJTCznh4QJDtf+Ddp08y+06cwKFXTKg02rCE1FQl5sRNhPkMsN4pzPO2u2GoTJ0zmM8BG+1NqA+se/3hA54sxyP5ICcj8/rigQN5/K5nl0OH5D59/jyMaN01ZJKZm6tZVVMjyhzzBZn6JbU5bksLU9ff6v2fgp5djYSYGA7JgcfjN2hylGhqZMT1u1FCIyOX1dbVabCp+PpZEyb85mRlFSAlIcGVzlMKhUJsXbkyBzW8E6cDA/XRR/qsnvM+evVqKfrLlQ7AtKwsQTR3xAnnRmDTMzY5uReDwZBgjitYhJh9mQizb2vbznD7obfp0xrIJFI9aru4D8NxET8ecnZ+0UNTs5af+7P7L14Inrl2DS/2GYJkbFllpe7XggKZNjoWaTNmi32nZwazD6O2cfj8OYaHRUbWykpL4xdIMVjf1kuXvpkwYkQpjNTcR1JGhsQOb29sW5jievIpKUmtjW3xb+2QxqwfdGYdwf10E4VMbvgYH1/KtC0iUT/45s7Jk1/YfR9/cwBOWbu2J7NzAb6b5zOFFcjkFhYurWtoeEm0ZhDlSLAT8KyHR6K1u/ss1CneJ1oznZKhKvAk1BGmps5X/PxCyGQyo6OFFZWWyqxxctqFOsYtP5jgciJ4Fc4g5oSjPeBtwPN4rE6QkcE5l06nnyMgFAAA/JDM3FyJxNTUbjZ79hii0/HYjKLSaGrMsZJE/H/M4J9F5AeOEqKxqYlA/Sk+xCFEGLFJSU3ao0fjmMMP99raBpsYGuZKiImVaKiocETMzsKSEoWK6uoOZ/VEk1SGvo7Ov9pJzS0t+MWqdEBQkOrNJ0/wC+w5dAZjEOq7RNs8h1+xi/+WpKqpufmb/scwJ3pUpH8cBP2m86ZNz4YNGJAjLipaqqmqyrMxU9G4LlheVSWbV1iovnbXLlzXp9LodGMGgyHcpq7/iq4F29gHf70kTM/Oxn+wQ3Em1vUca+syEon02NTIKHDP1q2J6srKxZLi4s3/VXhyRoYOo+O3TZeTlq7opqBQ1ZFCjl+50vvx69djCfbECm5Ede+ooZ6eh6yUFFfHt0P3QXeysnpWUVV1+o9Hj9wIFmcGRn3z2BlWVrpogp3OyXpAfReRkpmJHQkKfgEBvUMiImahdjYLtTfFdrQ1wR/Z4aiPxH0aXtyBk9Iwxi5dSsftDB2HWC1aFDp17Nhc1PeW4j6YF/uzuvp6ck5BAXbiya91ctLLKyqahXQyAeles539GYn43xWBf/Vp2fn5WHCfhnfUMdY5O9ORXrHj9dq44cNfbVu1qqC7mlqZmIgIR40f+cXF4lU1NYosmvs3ycvIFCvJy3coG3lJeblcaUUFS3aU6WtrZ/1bAkgajUZKzcqSvvHkicr5oKDh6KPpOEkuaodizOf9K3rBzkDxNud/hpRDZX2zLUYybQs6si1S0N9bNsuWPZk4alS2sJBQsY6GBkuzuP/NAYguZGw7DFZ+gNU6Gfjy3bsBAwwMsigUCsd2rqhhECfc3b8g43fVszdvDjGdJOAE5D1en9yz5wornH9ZeXlKu/z8tqEObR3BHc4/DO7MO7KFl1e3UQwJDg9XQobgV2giANAKMj5JaPzG2z36osnZaDRxwBOo/p1oi+AZmSiazGKDdLijr+9O9DfCQFf39pp58z4MGzAgWa1bty5NNHb44kXrK3fvLuhoOcjwbUoPCfnHHQjoOah/Tk8f6nX6NHaMYvtVk802yrdJoRDSP37m/d2OHMFJHV731NK6hybObwf365ehqarKM4kGKqurhZ+HhxvdfvZsYNjHj+ZMh4F4Z9Rz5rwEr95c/u7Tp/kWK1a8XzFrVpCJoWHIjPHjk/+tgAmrVt1Hk3lKB6+jZuXs2Uf2bN16ub0FFJaUUOJSUsajiWMfdihKSFDw1daVKw+unTePJ+ocdjgN6tv3GppzWKK6Z8Hi4iloUo8dyz6cev/vYmIE0nNyeqN+fRyzrQ1jc3v7s62hdob7TRwncerRy5dzkbzxsre/jepXZF99/Rx9HR0awSM8fPlSJSYpadDpwEC8sAf3aX2Jf0iMyg5do34Je51wmJ3BT0JDy5CEWy9d+kRHQyNMQ0UleUj//hzhCPQ+c2bYradP3dChPAuKS0Djo62TlVWH5hO/3bq19MjFi1asuL/kp09NxMXEfhjDPSI6WiUtK6ufs7//DKZtgeeIFHbXDdwFItsCjxV9/C9csEXyXkVJ6bb9mjVv+vfunYbsDJas8P5RZZ8K5n2nIH700qUlNkuX3helUJo5/WJ9HByixERFHe48f76faF0aDU5A3qEAGdT+IsLCHTYe8co/Jz8/HPMPZ8WV4iIdUD4lJSm9jYmRGGps3J4tENk8WjeE/c6fHz917Njz0EwAgCDQuC2XmJ4+F00gxjAnZqpsNgp/BtzXWn5OT8fhReLGDh36pFePHn/sXL8+sQuvCcelYsUWvh86MqMTE6XuBgdboOcwv6isbAyLJijtBa/0mIImC2OQ/mNGDRr0Wl9bO8jF2jqW2+s7miAbJqSmLrsTHIwnQL2J/13h0tng1XOj0ARw0NX799/FfP58E43XtyxHjiz4h3+vz4K2iVf+yXakgKSMDLVHr16NJdgTCiV7++rVezcsXFjMS/0sjq38282bB9ngACTnFRVNuv/ixdmp5uYcF1M17ONHnV1+fvMyc3Nx8kjsIOqql+g4vt2CnT4+eMXam4FGRg+M9PXvOqxfXyAmIsK1KwJfvnsn9+r9+/HXHz6cXdfQgJ1/KhxwWXjsmnbs8mXs7H2nraHxcMzgwXeWzZyZ1kNTs6vD7+A+C+8MZUXynFoW1WcFgnXhAf7my0jJzBS/eu+eeUhExILs/HxcRzS7UP94N8LYguJiM2xbDO7XL7RPz543naysPnY0NNP/OADRxF29uaVFjwA6i/F2Xl7ax93cUjj9QuVkZKiuNjYRqH7YI0PmBAExAXmJu8iAjmBFnLdVjo7OccnJawnucv79SXp2tkRiWppUOx2AdTxcP/BbaHAAAnzNneBgoUu3b4+MT0nZ3NjUhFfeyRCc9yIMO0gGhbx9a/j6w4cZH+LiLs0YN+4MmkjU8NKzmL1pk25JebkbmiTjlRvfkkxwAniVjhnS/YCwyMgZMUlJByeOHPn72vnzuS6EwpPQUM0z16+v/5yWNhlNlLHjj5MSwYkiW3TM+Rs3jJE9OgFdp+dhZ+cPGioqHBertrK6GiegMSBYF0KoLXjxwOHp48Z95MU+19fR8aXlqlXh6HA4K8tFfYduRHT0kKnm5k845V6ramoEVu7cOR1N9LflFhb2ZfYlnLAbD9vyEyPj44cgWYKuzSNg//7H3FaXSisqhNY5O0/MLypak1dUZMocNzht/MbOMbPMr1/7I5kXHhV15daJEyekJCQgBE8nsdLBQTk7P39fWlYWfvGgwkG2BQ6zMeR9bGx/JDNik5JOmA0ceNpu9ep27/T4HwdgUkaGOZ1Oh2yvnWgsJqalLUN/d3HDxSrIylKPubq+3UqhzH3w4sVNeut2BlgJyN2kOKxbFzTU2LiigwaVNOo4sfNvC9E5y+jZARnq89/58vXr4G2enmoHnZzyQBsAv5GdlyeAJj59d3h727ZQqXjrmBjB+WFSxKg0Wt/IuLh9MZ8/T0XXvW/MkCFvdDQ0uHqLYHFZmdSKHTsmxaemHic40wH7l/6xfYT0fzwmMXFJc0vLPsuRI9/00NTk+IlcRk6O3MTVq+eh+mPb0tLSg4MmQD9CprC0dAqSQRYrVrg8v3gxUF1ZmaOSGKC2J5qamTkFHcqxuGiarLT0rUO7dv2hqqTUTPAgfXr2bEbP0zO3sPA2wVoHtFJVTc2Y6traZ1ISEl3qNC6vqiJVVFUpLtm+3Q3d52qi1QnEaeMLiVl/hz0PD/9Db/z4q0umT/ffvnp1hrioaAsn16Gyykrhja6u2tGJiW6NTU0zOVS/3+sar7obkJKZ2ddkxozZaH6285Czc5SctHQDAbCrnkhYu7mND4+O9mcwGBocbFvgl7x6UYmJBz4lJy9obm7eN3/y5BAtNbUGnETpVye8bZnAxZN3rqSmrm78x/h4cW65XkEBAcZxN7c0y1GjVqLTD0RrNhuAO6Ei4yq0t67uWxzrsb1k5ebiAPi7YpOT10P/wXugwVASTWAHgCYAfuN9bKz8tPXrF9vu23cbTeSXEJyzKuNnEaZSqaPcjhy5MG7Zss1hkZGy3PosMr9+7Wbt7r4zPjX1NHMyyg0va0SoNNoYr9OnA0YvXmzz8t07jl0Zn56dLXInOHjggq1bfRsaG0+2tO4GonCBjnF77FZbX39yoa3tNmSHKHDSxb16/x7XVQs2FJ2zfNasy+ZDh+aRSLwbtv3svn04jEEkK00aJGmoHymKT0np0gUvBSUl5J0HDhiivuF0bmEh3jkjxOnjC846jPqH1WevX7/sf/787MevX3Pk/BX1ByTUn3Wz8/JaHhEdfbexqWkeN+j3OwTwbgM0bgQ6+visx/eDdA85GlhMXlGRvL2395Y3UVFnUP3uziW2hRCNRhty8urVU6j/sLv9/LnSrxbw100+CQ1VyC0o6EVAApBOpbisTOPCzZuDue26D+zY8WmmhQUOfB1BgBOQW6kwNTJ6NHbo0Ha/VcovKpJ0OnhwdXhUFI75J8nl+sCrMxqhWvwNHIMCHIAAXxEWGamPJg+7y6uqDhNdGwOGFai1UKmu2zw9XfDWTi679mo0OVZw8vOzexsTs4HgwvASCDyp8LT19Nx5/8ULLU67uKy8PEmk34U27u6nCktKlnJpHadk5eba7vD2ton5/FmRUy7K+/TpoURrDC1WQu2ppRU+auDAcF7vh5UVFYumjBnzCB12NAEFTqqQRCaTDztv3LjBc9u2k8NNTLrM3quqqSG5+PsbPA4N3Ue0Zoblppfn+MWA6elr17y37N27+er9+xy3c9Dz5Ek91J+5B4eHY/3qcblvQ/3R69cu6H7cfM6dUyAAloHsOwlnf//Nz9+82Uq0xhbkOtsOiYvzwYP7rz98+EvjzF8dDprAGxaWlspCdeh08DYWHBz4BTddtLSkJG23tfVbGo3mcC8k5AjTQQDOY27qNbp1+2CzdGlIe7+P06OvdXaewNz2y/V9x8iBA6snjR7d3qDQ+jxcVUTCo6P73A8JEZ86dmwdtByApw3CykrSRlfXfl8LC/fk5Ofj+JeiPHJrosjG27D70CEJYSEh9zFDhnDFlv4WKjVvvbOzc1xKCt51IMXF+hcsq6jY7HbkiIqggICr5ciROZxwUXUNDcJWu3c7JqSmYv1243I7TuZzerrVNk/PvID9+y9yyDWxI7FijZaa2kVTI6MqXu+PFWRlG0cNHvzxwcuXuUSrI/1XwSv+cJK2cxsXL34yatCg1GEDBnR5TNTaujq5p2FhfuhwNMFZ8TV/Bc2GpqYd+0+dUkSdxr6FU6eWccJFuR4+rPv7vXt4pTheXCPCI00BryRe8dvNm8IUCsV5l5VVPlhrHcfK1dUuNilpFdHqi+Fa2wKN48s8T56UIpPJjnMnTkz/mS+1fePQm8sVwLWT68evX/c7f+OG/Ko5c8q46cJxTEA/R8d3JBJpyf0XLwLpdHo/ApyAnEyNhJhYgZyMzEt0fPn+mTOf5KSl2+3QmW1t3T0uOfkU0Sb7oqCgYIqKouKjiqqqQTV1dfoE92zValCSl89QVVKitnfiwcP1hlRaXq6aV1SEs8KlQDMCeJXisjLy9A0bBuYWFmLngS7BHVsgfwXRgpKSletdXERP793rMmbIkCxOv2BkV+jGpaQYEl2XDZOViKM6tsRmzx7Ro7t3O08YMSID2U9dklGzuraWZOflpRYeFeWMjlfxiH4xiunZ2Xsmr1mTiepOl9qjG11d5YrLy8eyutxuCgrPjrm6vuSXfllCVDRJUlw8DtmUP+sAxG2qDs1RvoiJil4y0tO7csDBoVxUWLgF2aicclvDCd6IOy1TWV1t5XLokCSNTndfMHlynoCAQJf0aXX19YL7Tp4cffX+fX/U9g14cD4qgkORnLt+XbylpWXzjrVri1H9ZhBAu4lNSrLhkbFPoLyqaqajr68IqvuOsy0tPwtQKP+6O/NPB+DXggKBrLw87ACUhurQ+aAGrd3U3Iw7qzCu642EhenIEElmMBjL74WEnEEfDSQgkQKngR3LcZNGj/7DzMTk3tIZMzr85ig2OVkSTST3Em2cf7grWT5z5nJXG5v3fzx6JBHy9u2wZ2Fhq6g0mgn6fzocXi+wIzSpA9/vzuN1SJX5DMEBCPAkKV++UDbv3Ts4t7AwgODtFb0CDY2NS5bZ2wsFHjq0Bo0JnJ4hWJLX9N/Y1DR/7a5dgue9vDaPHz6801diYkf3nmPH9B+/fu1FcN/2w58BxwTc3dUOgLqGhjE4ZhqLi20aOXDgKTTxpxF8whRz86/vYmM/XLx162dWZJcoysnFDezb9966+fOvmRgaFnNqP8BDj0gEzWGXO/r60lF934XmGKWdfQHVtbVCB86csbh85w7e8tuHh5uDIJpTTQ0ICqoa0KeP67SxYwvAeuuYPnnoXiioHU6x8/KiMAjCdsHkyf86X/tzQh4eHS336v17VQIcN105udbl5hvwtrdPnGVhsR1XJwJiAnIKOL7Jy4mjRu1yWLdu6em9e0+xwvmHuXDjhkV+UdGENh9VLZs508PF2honhiHmTZpUi37v2c7169dOHzcOv2HBK2oKidY3s5xINZJPHfi+Ho/XJbw1rDs0KYAXSf7yheLg4zPyc3r6QT5oy9+Yt3nPHuvHr18LQg3oEmZt9/TEIVQ6ffV4Qmqqxt3gYFeCtxP/mRFdvwJoEMH6LYgRuzZujObD9vIeyb858yqQ3Nm4eLGd2+bNa5H9eYSDnX+8CB5Hluw7ccKmK37c4/jxERdv3/ZAh335QNfYCT4fjR3ryquqxKHqAd8x0cXff/f1hw//NfP8N4cfzh6iDDrrMqRx8EZklHFtrCEJcXGai7X1+5kWFjvR6UeCcx09/EK1npaW42Vf3/XuW7act166lGWrDHDCoDdRUXOI1u2933g4b+LEO+TvtjOtX7iwZre19TN0HQ5G+vo4yxlHBq3WUFGJW7dgwZf2fPfE779L5xcX87pzTOzaw4daCWlpotC0AF4jPSurZ1RCggM6NCH46EVoSXm5zYu3b2dBDegaKqqrF7sfPbrs4cuXneaErayuFvcLCMB1fRoSYXgK7OHGkydysUlJOCwOq5/tHSQN/KbP5TNnvuuppfWjuJn4Rfel2RMmrEJ25uZtq1ZdmTZ2bCbUwK6xExubm609TpyY1pk/uvvQIfXABw8OoMN+fKRrqadhYZts3N3NoNoBf+sUm5pm7Dt50uragwf/GF/0m6GLs8Jpgcq6DFJGTo4hMgYVufkmcExALzu7dzPGj19FIZNjCHACdgUNMlJSL7XU1MbdOnHi+OjBg9NUFBVbWFV4c0sL8Tk93bSotBS/2f4WHyvZedOmgD49e5b86DtK8vJ0dB0l1w4dehR88eJsWWlpvPIA/1tOWSlK01RVvdi7R4/m9nw5KSNDv76hQZLXKxbqo7QrqqogTizAU8QkJirvOHBgD9GajEuAz25f+U5w8Jaz168PwH070OnIFpeVbUhMTzdvam5mu+MZ9d9CM6ysHOJSUlYTvJPchiPJzM3VL6us1CBYuwox8YS7+xtkQ/FdY+2ppVUjLSHxhGjN5otttTI5aemb/Xr1Mou5d2+jp53dPWRnfhUWEoIdSF1pTNNocueDgva4HTli2tDYyPYVuHuOHZO/fOfOMXRozIfqVgz7+NFv1c6dSlDzgO8QQ+P9mtjk5CkNTU0/tC3INXV1pM9paXh7VzfQV5eCtwDLcX2NExWlH929O3HauHFL0GkkAduBOwvsbM3RUlPzOefpuTDs2rVIaUlJlhuJ0YmJov4XLuA3Tjrfxnt1ZeWIXtrakf8V+FdKQoKur6NTfMnHx3v88OFWSvLyeKUoJ8Sx+XjFz+9+B75vikSCD+oYTgIiBU0N4BU+xscLzNuyZQOyg+YS/Of8w5Aam5oGoknU/LjkZGjbXaB/JL2PXrq06dTVq1otVCrbfig9O1twyfbtCzJycmwJ7s06yk30QKLA4jI/IDsqh0ziz1x7A/v2vUsmk6OUFRVPIBtyYuChQ4senD0bpSArWycmIgJzDQ4B9WOGAUFBWx+8fMnWRS1fCwulUr58saPSaOMIPk1AyWAwemXl5dkhPUCfDnyP1pW7d639zp3rXdfQ8Lf2Qc7OyxO+cPOmKp8av5yE9s2nT5Uampp4ohPztrdPmTVhwlaiNbEJDR4v2/mqqaq6c9/27b6D+/UrYuPv4AG97TL7itGDB4eOGjz4pwPJ9+/du+m8l9dNVxubzciYvdXFemtYOHXqIWRQt8t4jEpIEE7OyBiADvkhDoc2ElloagCv4HX69JDGpqaNfK4GbPstuv7oUV80kSJBregSxvsGBMyuratj21bgW8+eDYxLSdnGJ2NVl5KenU15Hxvbg8XjZaOZqWm8lppaOb/q1cnKKnH7qlU4rM0OZENGGujqNkNt40jw7iCLp2Fhk0vLy9nimCooLhZwOXhwXGhk5EI+79MoaVlZ03+/f98Yqh3wA4advnZtAWovYt//D7wsEG8DUAcddTkiN5886dHY2EjhhZsRFRGh77a2jpxjaemETnFiCHg7xz7ifRwcrI64uASNHDiQ3Rkd8SpVgzbnOMhyu7JXTxs79r2voyOOGXm7C3X3YNHUqa/IZHK7tqt/jI/XTv7ypRfBHy9Q8GoGMWhuAC8Q+OCBSmpm5g7ifzOZ8yvq1x48WEylUimgiq6x/5Cscz96VIEdhUclJGg8ePlyEzrsTfDpSpnOBE3IJd9/+oTnVax06OaNMDVN6q6mxte29Obly2MnjRoF8Qo4H8WnYWHLSioqVfJyxwAAIABJREFU2LI9taCkRD3k7Vv88k4DVE10D4mImPMmKkoEVAF8B47zuwTZFprf/w8BpuGhCjriCAYj+Y1ojXHB9cjLyFD32tq+o9Hp6+8FB59Hf03A+GQpdFERkWgvO7tt08eNC6dQKGw1DBkMBlFVU4PfaH9LeMHo07Nnxs7167PaW+YEM7PM0x4e1rb79mXWNzRYEZ0Xl4ghIiwch679eB9d3XZlimuhUkl1DQ0D0WEvPqlvgjbu7jqvr159LS0pCat6Aa6lqbmZ8ikpaWFFdfUoovOSfuA2g1estJBJpBZZaWncX+PVPF/bjPm4f9WorKkRotFogkwHghDROS8YViy1s/MPOno0lUcfO37Jgx0HzSQSiSrXGketDglOLFBPtK5aUUHSDY1zFCqNJsDUv3An1ZEe4dHRy2vq6rwlxcVZFj85r6hIaOXOndMqqqpmE5279ZdB/H+8thZBAQGqlIQE/gzbC2XMf4NfKOGJiXh5ZaUQo7Wef6vv3Gwr4qSKuqwsUEhI6CuyWZKg9wa+G1OacBtDbYuK2lgKOsaLAHDSvwIkMm3qoQ4a7+TpdLoQs08T7IQ2ZobGlFkfb98+wspCm1tayKsdHXGikc4ev7GuqeKioi2oLeLxG2eebps8UBrru6GxkVzfupjn2/jB7vFbOCc/f2JqZuadIf37hwtQ4D1eV9kWuJ7Iycg0k1oTNWHbopZZR3GYPVU0vpNR/f02zgkR/x9Ln510fxsTswbZNXZo7vaXbSHAHIC14PlxBN8yhvFMhi8JMTH6EReXeNQhLQp6/BhnLzOAx8yawUheRibCxdp656wJEyI64wdr6+spa5yc9Np0WAxBQcEk1KG02/GIV95NGjUqn8Fg+O0+dEimuKxsMdE5mQmz51ha+q6eO/d1ewt4Hxsr43/hwjCCj1YQlVVWqiMDkkLAtn6Ai7kfEtL36r178wn2x7TERmEpmix8GdyvH3as4eRYMajPTDvu5vaPoRocfX3FvhYU9GGOl4OjExMNkOGIV2+xM9i3SGlFxQr014nHHvefhrictHSGkb4+jksci5/HOU/P2H/6guuRI2oZ2dl44tw3IydnaG5hoT7B/hAIpMKSkrVbPTyuBuzfn8OqQj/ExvaqqKqyJzov4++f+paVls7qq6+fgPWNJFFfRyfJZdOmf7RtVzo4mLRQqbi+949NTu5XWV2N4wyrEdwZr1CKxW2VNsHM7MuqOXOyoffme769OMoaOXBgDIlEeo/HlF0bNyb17tHjX+eOtvv2KZWUl/dHh2ZJGRmDkb2N+7XubLxWAfR7Vmj8+m1Anz7VrCr0Y3y8Khqr3Aj2O9bwCwzsTM037tMnWUpcPBwdpy6eNi154qhRJf/0pbvBwbJovovHi96VNTVmzGzg2sw+gV0Oyz6uhw+PHtK/f5SBrm4jNJNOAes5T0JcPN2kTx8c0/4TkswLXl4xaG78w3mxX0CAcsznz3hs65dTUDA08+tXbNdpEayPF/s/tkVTc/OqFQ4OJ2+fOJH+V+MkYAUgJ6F7/dEjsQ0LF1bz2o1529tn0Oh051tPn+7FHRU86o4hISb2ERnTjrM7yfn3rRNh9hffwG8S0llR8OTRo/NpNJqH88GDshXV1TPZ3Wl3k5f3GT148PX2FoA6UxIa5LEzdByfVT0d5rgBsXcArqSsokIkOCICt9t+bJ44pA0fMCDY2MAgXFpSMmzDokX5P/vl/XZ2eEVaJFMuXrp9WyEhNXVi4IMHE5h9DluStlVUVVk+e/PmoIWZWSkPPGpsR4VOHjMmQltN7Y22hkbMvEmTan/mi+6bN+cxJ36vQ96+PfUxLq5HVW3t2Mt37kxFnw0l2Oc4xs91DpKDrCpwl7+/NZsn+W31HYbG8ghtdfUwLXX1mPmTJ9f+7JcveHtHoT9YLqN6Lp+Tl2eakZMz+nFo6GhmW+WmrMWyLJ5XYcdOPPTefE9en549n40ZPDgUHb+xX7s241fC1/jv2oV3uzzDcv/FC5m4lJQRp65enYfOzdnlB6DT6Xq7Dx2a/uDs2cusKtPZ338jwf541GlK8vJ35k2ciHUdvXTmzEJVJaWfWuwwfdy4Ciz4ezn5+YGB9+/jleUjrt6/P768qmomG68d2weXiNZdBQD7wPZZmPnQoeEGPXq87aag8GHF7Nk/5bfZvnp1IfqDJeJtTMzZ0A8ftJtbWszOXL8+C302nI11QxLJKqLNC95vyxAV4Hlyhl/nt5s3dTYsXFjIazeGveGuNjaPBSkU0vVHj/YR/LNtkh3Eednbb8fbfnnppqaNHZspKiLivGrnTlw3erPpZ0opZPKJwy4ul4ebmLQ7jkxDY6PgtQcP8BYEbT6re3iCSoYmCHArxeXlKg9fvcJZ6tm1IqpRWVHxmNvmzTd79+jxWUdDo8Mv9JbNnFlaU1d3ZdTgwU/+ePRozIu3b7egj4ewui2WVVaq3Q8JGWJhZvaAyx/z8/69e1/YsGjRW1Mjo6/d5OXbvWJ57NChLUiS6xsa0tCY8eTu8+fTH4eGbmL2/azeQicWm5w87uHLl5cnjxlT0tHCDp4/3x+NVTM7Qd/B/Xr1Om+1ePFbU0PDr2hC1KEV4gunTMFbhJ8WlpSETh8/PvDY5csWCampuM5zfLzy0ooK0ulr13CsZBkWFosdgLy6NR/4b2rIZPLdE+7u5zVVVOKM9PXLOlrgVHPzysmjR99H/eTb1+/fjw588GA7+ngQG+w7clZe3uLf7969vnj69A6/OD5/40bvgpISdvZpeGX+VedNm+706dnzg5mJSYdW02mqqtId1q/HL5OuDTE2fh6fkvLC+8wZnIxpABuu3WTfyZPav/v5gQOQfbztoal5yn7t2vC++vrZGioq7Q7ZNtTYmIokjUqjpQ8wNHwZEhExKejxY/zCTp8N7ZCSkZMzFs1buy+YMuXPleQCaLKtA8+To8CZfCJ48cbkpKUbXTdvftBCo4neef78AJ1Oh5WnvwZdWEgoxsfBwXaKuflbXrxBHORaTFR0J5psnSVYu4UGvyUtEhUW3n1u//5ANJGr7UhhqN/EdXcN0TnxGzgJcAACXA1qu5YEe1ah03BcUSFBQZego0dfa6mp1bKycBwXDk3YSoYZG9/asHt3ZFxy8tHa+npLFvdBMi1U6ujmlpaH6D4YXPZoaWh8/IrE9/rhwze6KSiUKsrJsSxUARqXaEj/GcMHDDjR1Nwc/vL9ez8GgzGUxf0hqai0tHdqVtagyQTxsCMFNTY3U8KjomyoVCq7VhTg1TDFYiIiR24cO/absqJiMSv1jUFlNiCdxw00MkqdtWnTi5KyMrf6xka8yoVjtwU3NDYKRyUksPTFIJlMbhQVEUmG3pvvoKF+OAaNK14n3N1fjho0qJzF9QrvvikdOXDgHSqNFnnr6VM/Gp0+k9U2XlVNTa+41NShiwnidUfKQeMSKTIubmptXR07XgTQKBTKh4VTprhsWLTovYqiYh2rx0D0/MqG9O9/Hek93jcgwK2lpWUyi/sysTeRkWbobyg0HdaOdagu5KN2ePSMh0dgj+7d85U7+JKrLQIUCrbtstD8NwCN1+/vhoTsodPplqxuhxVVVd0T09Jw2Ko/HYDkgpISOXi2HEV/Xr45NIlpPuzs/Pv8SZNciP8PBA38N1QFWdk3fo6O1jMtLMIoZDInZILDqx8kWVkg6mAZ906ffqatoXGAaA2eygr+DDyuoqTkcG7//gvI2OlQuclfvlCy8vJsCfbG4+JUFAlwAAJcSlxKilB+cfFqgvWO+0Yleflrx1xd5yY+fvyQ1c6/tshKS1OvHz6c+TggYDnRmkGdldvxhR6+etXn/I0bilz2aOvR+HjroJPTVKT/44Z6ekWsdkZ9Q0ZKqvGij8/7sUOH4q1zIUSrI4yVaHwtKBhUXlXVoQyyB86cGfchLs6cYM9Lqhak7+fDBgyYH3Ts2AEjff0Cdukbg9pW45tr16KvHT68XFNVdQ/RukqHUx3U+LmxdMt1d1XVcmT7fYEenK+okZKQCNhtbT0D9Wk3We38+25eRkV9Z/aCKVOWodN7RGvsWlaiXFRaOrGwtLRDfdFvN2+qPnj5EofAkGD1+I3mVNeXz5w5Zb+dXQhqb7XsegEmLCRE3bh4cdzOdes2SIiJ3WHDT8yApsNSmqUlJR/v2bJlJmqHB4abmHxlpfOvLai9Nx3ZvTtqjqXlAnT6iA22hUJBScnw4rKyP53OeCInC8+Xo+CLJBle9vYX0B9/ojVjFfAfoA7ovfOmTY7Tx41714WXgTujyjbnpJKysplnrl2bigQHF2bJdih9be1GZOwG6evoBBOsSTZRpKKk5OZhaxs4cuDADmfY9gsIMEX3OotPq6IqwX+rHgEewcnXtz+dTmf5SzYFWdlA982bnSeMGJHRWfciJSlZPm7YMC90GM2GNt6Dix5ri4yU1Ek0Ud4+bezYhM76UWSoF1iOHLkLHcaxuGhK0OPHhlEJCe2O85iWlSUWn5IyiWDTlllkj9xysbbeev3w4dC++vqdlhDK2MCgwtve/oi2hgau9+UcWh/x+CjD4jLB+cdfVAsKCBxxWLfObvmsWXmdOC+rn21pibcCv2Zx0cIhEREGz9+86ehLc7zi2ojF14bjuV1fNG2anfuWLZ3Wp6xbsKB4++rV7iQSKYeV5TKQfm49eyYBTYg1toWwkNCVnevXWy+ePv1jZ/2oj4NDzczx43egww+sHpuehoUZvHj37s8V6tgBqAnPmHMor6rSOnv9uiKv3yfq9Bj2a9acQYfnidZMOsA/E4tj/nVywo+/ISosTN+8fDkerL69HSTlFRUN23v8+HEkZ7Z5ei5Ck2uWOAEHGhnl9O/dG28DLupgUTgDp4ufo+NVCzOzDr/VfBIaqhCbnGyDDpX5tTIeOHtWBJokwKUsIVi/gvXhQScnlynm5lmdeSNy0tIMj23b4sebmQWi0woWFo1jQqtwyfPEqx9Pee/Y4TnTwqJT4x7hLdl7bW3jJo8Zcxid5rO4eBwDqN0OwPiUFN13nz4NJNiTJfMe0rfTLAuLLtmSamZqWuPr4HBWXlYWJ5Rr4sA6iVdXsNrxmkUA/AKOGXvEZdMmv2UzZ3b6Agn3zZuzF0+bdgQdsvplFvY1tHtlbGpWluTt58+xA5Cl2bXx+L1y9mw3JyurTo+9v2bevM9oLnyYlWUyGAzhgD/+0INm1GHwfPGS2+bNrkumT+/U/hdvzXffsiV9/uTJfug0k8XF6xLM2PXYEBaE58w54PghyHDrzev3iTo9Yv3ChaUO69b5UyiU+0Rr1kTgu75cUEAg+uju3daTRo9myZsAGo1GNDY1UdrjqBMQEMAx+sq+MwxwH6KBZNqr9+8Pj1227PS+Eye0qDRahyfZO9auDe7ZvXtwB4ooEhQUdLzg7f07uu4O16+3MTFCDj4+CwqKiyeyaWLFFbx8964nNE2A2/A7f141+cuXEQRrEzfEn923z2XMkCF5XXFPat26NffR1b2JDMbPLCxWiUqlaqIxgtMfaRMaH08dd3PznDhyZJesBlNWUGgy0tO7QyGTcUxeVipMr7mlRQVN5n75i1m5uRTPU6dMCNYHmcf2yMtjrq4uE0eNyuzKBz+oX7+6qwcPnhMSFHQnWLNLgJXgFYDSLC6zAHpwvqBGgEI5umfLloNLZsyo6IoLkJaUpJkaGb1C87LnLJ6XdW+hUrXaM67gXjC/qEg1ITWVpTFX0bgZs3TGDDc018iWEBPrkpACZzw88JbrSBYX2x+aUodoRu3wiuf27e4LJk/uEttOVlq6xcTQ8ClqhyEsboeqLci2oCPbAjckWM3BWeDMhEZ8caNCQgzrpUuzHTdscEKd7yuCc2O6dAU45l/okd27N8wYP/4NmUTqsG7qGxpIPufOqfYcN8465vNnrXYWg1fk/WjLGZ5Uy6dnZ689FRj4aO/x47Nq6upEOzQLlZdvNu7TB8eKrGqHvZCpoqhod8XX9zczE5OGjuoOdZjk2KSkseWVlXbolN/jpgpD8wS4jZKysmFNzc2sXLlbrKWuvldfWzu2K+9r++rVeSMHDrxJsG4lvYD3mTOqETExYpxsoKPxMeiYq6v3tLFjC/ELxa5i05IllRZmZngVRzELixXc4OIyqLCk5Jft8+aWFjkcb4vF/TQeU+NdNm3aPX3cuDhW2CMdxUBXt+7uqVMBGioqOJxMCwfVTTyvYnXbySQAnrf5pSUlA/fa2nqvnDOnQlCg694xz7G0rFk6Y8YVgrVbz2VcDx/Wj01O/uU+rbqmhrTUzg6vajNh1cUICAiUr5ozx9lz+/bPEuLiXdafIfshW1td/SKL+7C+0JzaDU1GSurxfjs7d9QG/o+984BqYvka+NJD79IFFAFpAmIHK2LvDTuC2AuKIGLvIE0sqICiKAL2XrCh0hVEBKSjIALSeyDtm3nE/+d7T58CG7JJ5nfOHDYh2czMTrlz5869xaCdsK1tzJ88ucF20qTj4DIPx9sKuPv4mGbm5krBiUoHPW/CLa71eanAK21t8zbZ228V4OfPRY+/HVlp6bid69a5Tx41CredoaPnzyufvHQJ+ixywTqpxFJWUKgeaGKSjP330Zu+565e9fY5e3YhhUrtkr84n23b4JHjyA5+rURNSWk3mNgjh5qb47JzEnLjhtbBU6egTwZN1DoRCM4DjAVZCrKy1zB8jsu29e3d+4b/jh3PtDU0iGAqBy2lW3C8H/QNLUrUZyknI/Nh9/r1RyaOHPmVCPkZNWRIIlhE4q0Ihn4YOxwh8s6zZ/DosDXOeanvo6l5tq+OTgKR2oGRru63ZbNmBWPtfhiJsoEMn5k2zvesRCM4d0MSEfno6ujosWjaNEL4RR9saprUQ14eb8tmKD932D+diLAwBvp54QATk4sYTsEjpSQkroM55DG761lLXZ2ybvHibLhuwemWcDdMAfWoziEmKlrotnLlftvJkz8TRG79COTWFJznN9gPxaACEFlzEAvBjNzcXlExMdK8VOgV8+alCAgIHMRQZGDI+yOurptn2tjg5vPP5+xZlVOXL8PIujBypNrx0NA+VCq1w2YTcLKaMGIEVEr+bkdC8+zVq3s8Tp+27WreN9vbX8b+3OF3BViI7TyydWu49bBhuOyoQZ+cXkFBMPLgSNQ0EQjOBAaI8Nq6dfsWBwcYwburgTNKBpmaXjE3NCREIALHefM+gnEPTyUB9ENMWAtAFUVF7+ljx34gSn7mT57cJisldQXn2/bCOuGiJ+DyZQsM5+B+qj16xHm6uoYNNjUlnKuWEQMHpvQ3MgrDuDugHPKTzd20iouJHVoyYwZhLD0njRxJ0VRVvY/he/wQjmkdVgCSREQY+5yc0g9v2eIO5tyt4K2ujv0lYF1xjEDPH/qvxfPZo9gOnURaQiJw4dSpyQSSWynqyspQtsBTEQ/ddonxo8dNOGBghR4ZubkavFbwgL17b/Lz8UFz1zZeffig/Kkndu9eO274cFwGIOhDyPvsWdXT4eEnwct5IInD95/Fx1vS6PROWefxgTzC9AcDktr5Gzf2Hzh5clpnfBl9Z+ywYR9hlv/goxX8/Pzu5w4fjsAj2i/M89mrV0m+585tI7e2zkJDEwLB2VgPG1a/asGCMBdHx2UC/PynwThW34nb0A379Ileu3BhHFHKBcc7krAwnn4AofKPqP6ho4GscItw8suePQ+x9oiSeKHZyWcwFeeiMeRkZHYOMDEh5OasrrY2RVtdHW4Scm2kXNDe0ekY7uYJGD+iiJYp3+3bH4gIC+OpAIQBPDrtdkxPW/sb6AsX7wUFzQSyPjw22ymrd/DdyzbDhhFmvAByCHRjgaevOTHUpTpF/EnQvoiWqWO7dkUJCAg04XhLGKSKhBSAxAQOkr14rdDjrKwazh85clpRTg76nuA1JSBVXlY2+syBA8unWVvH4uHRqKmlhf/gqVOG/ufPnyO3tk77x2Jiak5hoXBn7uswZ06Dk51dMElE5Lfh69soFO0zERF7dh49OqihqalTxRIlkSo1VFSgqf6vdsGhdrFAWVFx49Xjx88PMTPr8m55a1sbFhAWprjn2LGDjc3NKzHkK/VH+qMqQHAqcEGzYcmStE8vX65eMGUKXEjEd2QhAT7fZKKn5wnGG6JFIE3jgcfXqKutvb+XhgbhLKK0NTSgMhnPI7IwEnOHHIHlfvpEYjAYo3Eu2vn7wcEpRG4Uftu3l4N24Y3hayVBpLbViiG4lSptdfVTetraNUTLmJaaWhOY717heEtVrIvKKRj4qp++ft7jkJAV4K+tnIxMHNYxC9n84IMHb6j06NFMlHqeM2FC3bJZs6pRV2ArzUCu8NXV0vpGtIyB8aEFLJ7x7IdQxySCFIDERDEtO1v3S1kZzz2fUYMHl+/ftOm4koICtIDjlaAgDAVZ2Zg969e7j8fJ8o9Ko/EdDQkxOBMefghr9wf0z7aksXH//k5Hc91sbx+tqaYW/ocfN75w48bylIyMTvml6N2zJ33D0qXQv1LGLz5SpKGistvDxeXaQBMTXHYrz129Kudx5gz0leiIod00BIIrAWPGM7uZMxdYWVgEYO1HcH6rQBAREoo7snVrNqo9tvDAf8eOdILmDc49uPoBfPDypWJHPu98+LA5lUoVxzELdRNGjAjh4wBZbOKIETCaZhbbG2gHnxmC53m6a926d/KyskTtY3huakDXVrhYluv36tV2Lyjozu5165bLycj4grf+xB8snN+jQSKiRS3cQMLF8KWqtlYoMTVVBnWtDhG9z8nprbSkJFE3kXA9lgznKaQAJCaiT2NjdT/m50vxYuEnjRyZ2rtnz8PgspYXyisgIPDu8JYtztPHjo3H656+Z89qnA4P94LVCX/iFx+b05Xf2LBkCTyu/fZPigjS9HPXro1pbG7ubFAQuDj/md/BfFkpKXePLVsixgwZgovPv8CICBGv4OBt4HIVSJJoOEIguJe9Gzd+OuzisnfkoEHrwEt4jPN3mwjBBC3KZy5/VORZ48a9UFVSIqqlBGw3GXje8HhoaEeDTlli7U7g8SJu3eLFBeyMsvynrF+yBB6RuszufIBnhvxvIf6UurHDhr3q27t3OYHziOu8EhAWJkKj0XC738xx4z4C+X/PhqVLnbD2YFj/NX/XWA8dGt9XR6eGgPUMLc9wCeRVUl5Ouh4VpYS61x/TNn748BhdLa0SAucR181FKFsgBSBxgSHPlXm18IecnR+Ji4md4YGiph7ftWsdGHxwO2JzJChIJTAyEirnbLBfK/+w4rKySd7BwZ3eJZoyenSZr7v7dubE9TsUnsfHr2htbe2UdYLNsGHVk0eNgrv7P5r6fzy4efOGyGPHrg4fOBAXy7+gyEgRv5CQ7RQqFSn/fk0RqgIEN6GpqtpwZOvWR/eCglZKS0ruwX59pOij/86dyQQtBrdbKmcONjVNlpOWphIxcxJiYrSDzs5f2JwNc+zf1v6dBW6oQd+7HBGBVkhQkO6zbdsLrN2SBoHgCFnKRF8/RU1ZmbBH1/137MDVtcSjV6960xkMXHcUJowYQVm3aNENJzs76K4HGo/8apMoB9R3tDqB6xvBnn5o2rdvskqPHhTC9sOdO3Hf4EUKQOJiWFxaqk6hUnmy8L179qQ8OnfOB2u3yODGo8CwTNl+27dvmjJ6NC6Wf03Nzfz7TpwwPHHx4oXWtrbJv+vf5NZWzQ/Z2dOrams7NRnz8fExjPX0nqkoKsJJNwf7/fG5kZMcHc0781tyMjIMeVlZ6OsD7pTSwCI9EQj7KxdPn/6wb+/eXR60QX3xHQ8NVdx/8qRHY3OzM9aJSGU8RAWqAgS3AcYxej99/ZLnFy8eNtDRGawoJwcjr9X9MP/Q1JSUrhnp6hLCWiO7oEA0My9PDiR1kHSoNJohFz8ehqy0dKaMlBRhgyEICAhAuQW2F7YozHb4+kqnfvwI3Xrgtbgu9HBxSQZzPEf4n4NWijqamnBz6jU786Gtrl6FIRB/MKZJiovnKsrKviNyJnW1tZswfH1rssSftiiJRNtsb1/w6eXL3bMnTLDi5+ODmxc/RgZvG2tpGe9kZ5fPjnosKS8XBvO0OEgSP0vVtbUiGL7W24g/REpCIkdBVjaZA/ohrrKnIHr0hEVht7+/wYThw18SWSvNSsDkWDXU3NwrLiUFCrU6XFa8L6BDHwDCYgweN2ujUPj8zp83CoqMPABeQifgf6Lcl36ekDDt2qNH91fa2nZKqaPfqxfNf+fOe27e3kIFRUX7wVt6/yWj0+h0B6zdB0dngFG7GsBgnbxt5Uq3uRMn4iboB0ZEyB8JCnIFlzB/yOcfAsGj9JCXpz8OCXkfFROzdtfRo4uA4G4H3u4HUum2VateaqiodLvz8KdxcVJggSCPtTtvlgNJ3t3HR6e1rU2dOTfCv1pc/FjIU8eMyRk/fDjR3YJAH05QCajQ3T9MZzC0GQwGnlbrOWARncdJK1J5WdmK/oaGMckZGRMwNhk4BOzd+2no3LloIEX8dkwD65v3C6dNI7qCHa4/K5lzD6GBmwACfHwMP3f3TJKw8IK8z5+XJ6SmLsDaT9TVgbEsnFXuDF6/fSta+u0bPFEF52k4DkMXXiTmfI1dvntXPjk9Hf7vVxmAwfVEULfo/jl7+MCBOfMmTarigH4Ij67jdrQbKgCLMRTVkahARU4oxiO+8P4lzMnIMI64uiZt9/UNfZmU5IJxz5HMNm119TOHt2y52d/ICBcTT+/gYO0z4eEe2G+O/f4DKCBDi7zBIN3t7G8PMTOjHnZ2vrn50KE2sFh2B28N/NVn6xsbh4TduSO/cOrUDg+2k0eN+vIiPj5mo51d+NyJE3GLiHQmIkIE1B88yuyAoWO/CAQCDqSWlpUCAgInswsK3h4+fRoGA/rLapvVv3vj8WOJ1I8f4WLLGCQNkNTuPn+uVllTA9+DbkEUmUmIhx5HXXfUPYcD2wpem1cyD67HAAAgAElEQVTUgSYmBUA+KeekCtBUVW2dNX58YXJGBmwvsqhJIAgMdDPBCZHb4RoFyus9OKlywfrqW2FxsV90UtKrCzduLAPzp9qCqVNx8aP26NUrobiUFBXmHK0FkuqT2FilL2Vlcsx6kmYmUYwNm0GIDgH9Ln7gxYJDBeA39PwJy2jnw4cVLvv51fJqBWiqqTX109cPe5mUNAa8HI5xgYm0mKhofNDBgwF6vXo14XE/jzNnVM5evfpbn3+/QA1MjvOHmpnBoz5fO5uHoebm1HMeHvc+5uV9djp4cBN4a/bPFiPNLS1yT+PizBZOnfq0o78x2NSUHHz48H49be1SvJ7F6fBwkaMhITvpDMYKDFn+IRCIH4CBhUYMHBg70MQEKp9IvTQ0SvH+Da/gYBWwmDABl2YgGRV++aJdVVMDNyLgYgK6IhDH0GkNKANloRb5n/RkthU8qNfv3TtDV1ubE0+fQD+M0Jk71ygAwTqg5+l9+zJRE+cqYN/6jKqBdWhraLSAFDPM3DyH3NoqaaKv3+nxzM3LSz67sBCuQS2LS0tNyisrFZlztCRz3BVCNc6RQAVgDi8WHB0BJjaSmXl5U8FfX16uhE3LlhVW1NQcuvrggQGVRlPk8OKUaqmprdfr1avLUaiaWlr4vYOD9UOuXTtKo9OhtWhnIuwKgMls+vTVq++l3L4dKS0p2enwXAY6OrS+vXu/nzRq1PIzERGht548WVVQXDyUTqfDSfK73w+4IzYEa4/W1WHA/b/i8RCAMMAXGBkp73vu3HYajQate5Dy7w/RUFEpRrWA4BkhSUCAYWFs3CW/l2AcJIFxEC4UJHb7+/dKSkuDltfQUnoQhUJRBOM3tMb+MSF+gCQiQlaUk0Ob1f8NtDTB6wgZtKDjVIUrnJ+gEtCIWx5sZm6uImre3IWqklJLwN6971FNsB5dbW04d/zR/FHb0CBQWV0tCeZr6UmOjnBjzgqk4W0USl/wnihzfhYgeJH7XHnw4OHNqCh4suvunTNnPspJS9coKSg0o9bwd4QEBSnKCgplPCnbYihiFqFpbWubFpeScgxaWPHsAkxQEB4FjnoWF3f9W1XVKg4uStNAE5OjZw4c6LIj8xYymd/33Dnj4CtXDmLtR8W7MiGJgsnN7UVCQuz0sWO7tCMJA4OAxRpl49Klz2By8fAYnV9cbPsmLQ364fi+S6bFzofAYDCwM+Hhit5nz24FL5dj+FlN8ASBBw6Uo1pAIH5NQ1MTP5ivoAWSJkgaW728jJtbWiywdis/NQ5YQBAKwz59msF8UoZq4j+BvoFE8WrCWLvPXY5DW139m5aaWsWnkhJ2ZQFuokIFqjSO90QblFwGkJUbhIWEUDRagvAkNla8qbnZIDopyfj6o0fQLRK09tPj1OZFo9G0QdoArjfY2NnFWRgbP1k6YwZ0nZQ+adSoCiGwrkZPHcPUlZXJu9evz+PFskMF4CfUBIhLY3Nzv5NhYSZDzc1TeL0uHOfOPXHw1Cl4FLgPhxbhjcOcOXcUZGXJXb2RV3CweVBk5D6sc8d+f4axu4/PBgqVum3OhAlteBXYy83t+b0XLxrepKUNAi9NmHll62726fBwUe+zZ6HPv2UYivbbUWDbQIIDAvETHr56Jf32wweL2vr6AVcePID+gXSZSQrVDoJVpGRkSCWnp+OmcAKLopYJI0ZwpMLV0sICBleo/lRSQsPYo2iHxwyhBSKeCkBN1Mq5DrT2ZjMFxcX8YXfuwA25kZH37w+ta2iAp5Og0o/EZUUdCuSSwSBB6+gEMFdcN9HXfw3WemhTjYcRZC7oEMQF7vwtgjIer1fEzHHjcg6eOnUMXPqAJMxh2a+ZYWNzc5CpaZdD0B86dcri/PXrp7B2axLcBNyGpqbFUTEx78CkcAnnskOzc0JYGp+8dIl0LDR0F7iEx35FMURHgRaiNFQNCMT/M2/jRnikdzpYUAwpq6johbVbYyHLYnyAGw4lqBp+TVZBgXhmXh5em1mMHvLyxZb9+3PyqRNopU7moj6IjgBzH2jtzUbW7N6tnl9UtByMm9CIojfW7kKBm91vwLLBjQTN8zduWMnLyGRce/ToktvKlbfMDAx4+SRoNa8WnP/aiRPv0FBAaITikpNtfM+dG8TrFaEoJ0e5cOTIQxkpqWcYZ1khMURJpHSjPn3ugEG3005om1taBPccOzYqKDLyLIVKhZG78d7dVngaF+fqcebMqBYymauOqJHb2vj8L1yQ9zl79jCox/UYUv51lnoMWQAieBjoQuDz168SJy5e1DacMGEpSHFxKSmvQHIrq6iAFuq9MKT8w7XKQapA1fCf8GH4BUjjhvqGjt3ZtVEFFY8fcb6nIWriCETnodJofGDeFjt06lRfMGcfuP/iRXJmXp471u6THEbu5SXfu6pVtbXWQGY5Y7tx4wPLefOsQd1I1tbX8/Fg0+DZQDyC4qKicBcCWuggHxPEHbg0wUBlXfrtW6pKjx6tPCvh8vFho4cMyV8xb17okaAgaP2mzCFZJw82Nb2+wtb2U2dv0NTSIuATHGx59upVb6z9KC1LqphKpRqfvHQJTorVTnZ2H0giInj4KIF+/0hs7D/Y6bAwJZ9z55DPv64D/UJRUTUgeJF3mZmKn0pK9Dfs2zcDvJyMca47CgR3IYHh686ihsPr4wtzXcOOo/dQZmrB+Z7aqIkjEJ0j8f17wZzCwv7uPj5TwMuFGJv9kBNlSQ3XZc1k8rDPX7/etZw3L3DCiBERezduTFVRVGzhoXrgWT+c8AgwVCjBc+C9UH8grnD3+PXrmdOsrR9OGT2a548CDzEze66nrf06u7BwJsYBztTFxcTK5kyYcK0r9zgSGKh/7to1eHTVvBuyPPLkpUv7wd+1bitX4hHxFTrDV2JeQ+sCSnfW/+nLlyV9zp3bhiGff3hQwssTJoI3+VRSIhl5757145iYKbmfPsGogDqoVhAEQpKZ8FoQFXJ4fbSycZ6C8s1XPG9YU1enePvpU1mwBqhBTR2B+HOiExO13H18ZhaXli7FWGc8welAA401D1++HMFgMMIN+/QJdrKzq0LVwt1ABWALc7JCCkBiY3Li4sWlA4yN85QVFXk6crOFsfG33j17BmcXFo7C2v02EBoxEunVlNGju+TDKPL+/Z1Ye1Sq7hoXJgZFRu4W4Od3cXF07KrQKYP9vwIQWo8Vd1fdHw8NJR2/eBEqTqHlH7Jy7jqlGPIBiOAhnA4c6Jf7+fPGtKysseClCoYi+CIQiF8DT1XhGkG5tqGB9Pj1a91p1taJqHoRiD8QVCsqhFw8PMYWFBdvLC4thVF9USCu36/7+j169UrraWzs0OaWls3uq1fno2rh7gcOJ6tvqCqI/6wy8/KWTlu16kHi9euPeb0yvLdte56Wnf34S1nZQoJnla4oJxfa2S/XNzbyr9m926GZTJ7azQtPgTYKZfGp8HAlKo22edOyZfmdOQ5cVFoq4erpOQz7/6AtcGc+ndWZb21r4z91+bLW8dDQraAcsI0g5V/XYZzevz9NRkqKgqoCwc2QW1sFTly61OPSrVuraurrV9LpdHmmvIRAIBC/RE1JieqzbVuF8+HDeEYhhj6L+4KEFIAIxH+vmfiampulpq5c6VJWWbkBa3f5w49q5o+RBmu+ycFXrvSmUKm7Wshk5C+dS4ECLbQm+4iqgjM6ZlVt7d43Hz68HWBszNPmuZLi4tSh5ua+Vx48gD4diLyzkxvq7Z3W2S/7nDtn9DIpyQljT9AKYQqFMiEgLIyfgWEHnOzs3oiRSB3y/xabnCzX0NRk/ePaGmNxROs2CkXg5KVLpn4hIfDY73QMWezgRZ2UhEQj9MWJQHAr0YmJYm/S0sYdCw3dBF4OReMHAoH4U/j5+aF8Co0qPmHt0UXxAG5gGqHaRSB+zdfycmF3X1/DZ3Fx0I85dBGFFH+dHMYoVKph8JUrgeAarl9JqEq48CH3kJdvtbG0LENVwRm0trWZr9+71+FFQoIQr9fF7vXrM8GfmwTP5iuskw6hM3JzRd9lZEDrNXYez4eL34mnwsL8Pc+cmXPlwQPhjnx57/HjI8Efg++vJcTEcqZbW7PUAjAgLGycX0iIP7ichhbvuAKjZdWhakBwKzceP5ZduWPHpmOhocfBSys0fiAQiE7QABKem/TC2YWF+m/S0qRR1SIQ/6aiulpw59GjI5/FxX2X/ZHyr+vAkw/Q1ZYkqgruAyoAaWMtLUtwnqwQrEOopLx8SXRi4iBerwgxEqnV1dHxEtYexIaoJGHtx147TGZenu67zEzo948Iuy8Dzl27duRAQMCuiHv3VP7kCx5nzpDIra3rsfYowH8hIS5+Z5q1dRsrMnjzyRNZezc3pxMXL/qCl/DYMTqyhy/Q/18jqgYEN3Lt0aPe+06cONhMJruCl2qoRhAIRCeB6ylcfR3nFBaqvvnwgeeDD5V++yZ4JiIC+XND/I21e/ZMioqJOcKU/YVQjSAQ/w3/Dwu7ElQdHIN+5P376yPu3VOn0njXH7+goCBjiJlZirio6C2MmJFJa/22by9QlJWldvSLuZ8/C+49fhweP7MgUHnUa+rqnPccOxY+YObM8cnp6dK1DQ0/PQ/a1NwsFP/u3VYajfZj1K0aGSmpW3hn6mN+vjjIz3B3b++LT2JjD7a2temiIQJ/QD/7LCwoWItqAsFN0Oh0vptRUXo7/PyOVNXWOmCc6SwcRldHwXl4FzqOMhAfxvkO8wWY5WALwsLCFWIkUiGzX+KFFpCrjCkU3nbBW1JeruETHPwEyHzXoRxa+OWLfGVNjXAzmYx8k/Agjc3NAgs2bTID640QrD3KL7L8QyD+gO8dpRJDgUA4SrhpammZ4eLpuSL30ydxXq4IC2PjamcHB3gMuICA2fskJy1dDX3CdBQqlSpb19AArf+IZsVGAm1vRFlFxa3pq1dfmL5q1djoxESlr9++/a+QZZWVIhsPHJiZkpEBI+8K/7BAORvh5/cZr4zkFxWJgd82nrFmzWGQnztAEJiEtfvKQYIg/lCc7Ow+DjI1rUFVgeAmbj5+3HfD/v3eYHE984fxiug0Y+2W79ANxmsTff07wkJC99HT5FnKMPxOQsD5k9MtzTQwNgb+GjNkSNvyefOgArABx9vKHgsNNYp7946nZf75mzaZtrS2DgQy30yQHg6fP/+12dSpLu7e3iOAPKgBA8Ch4YA3KCkvF1y9a9eI12/fhsP+gWR/BOLP+Uu5YKCj89VET684LTsb1QjnAE2cHSLu3cvcu3FjBC9XhKmBQaJer14vswsKNDFimX7DIyCdVZhAXy8WBK52EZCm5RcVDVu8ZcvDcVZWz/r17fvadtKkoj3+/sMfv34NA3Co//D5zKljxlwVJZFau/rDNXV1Ipfu3BkanZAwKiktDSr9TDG068dq4JGmr6gaENwE9Pm31cvrMLicTPCsVmPtPji/WFlYfDLt2/czsz9CJUPenIkTq2euWTOlsqZmKnqqiC4CF9ESHF4GEQLIBPkgVWD4WlP2B0kVpFwebp/W/3gNoyMfuP74cSlISWsWLnwmIS7+2sLIKGuImRkZdWfu5VlcnFF0YuI+cNmHw7LeyJzTIdBaWQ5jT6BHBA/zlwLQRE+v2dzQMD8tOxvuKouhauEYVEOuX98vIiLywX3VqgxerYQBxsZ1hjo6EdkFBRPBSxUCZQ0qTZo688WDAQFQyNPmgOpXAGnh49evx4OUHZecnBqTnDwEvGf8w2fqZ4wdG7pz3boPYqKinT4SE37vnjyY7Ec0NjfPfpWUZA7e0mIK+gjWU8ZUQCAQXAEMaATGWbc2CmUiAbMHXbLAYEk5C6dO/TB8wIAipjKhykBH55uWunoLeoKIH4CKDrzaBFQAanB4fcgTQDbIY8qAvXG8p/mxCxcM4HpNUlyczmuN/EhQEIlCoUz5xb+h7D8tICxsDBw3e/fsmarXq9djkojIU/8dO6rREMFdFBQX97h89+46uATEiGMAAN1wfALpC0jlWLuivs162LCqOePHl/1jvP7uTxvmHW64/HX6oLyqSnDX0aOwLcONAxms3R+xInM9qIpxzikFBMH58XhhDtYe4REpADkIBoOhc/bKFT8ajbZi64oVn4SFeNP36a7161++y8xMLPzyZTpR8iQiLNwkKCjYqYAXMW/fQqGRUyJQ8jMnKMWY5ORBzHHluyk+VUhQ8J6Jvv5ZRTm5Ti1QcgoLRZe5udnV1NVtaGhqUsLarSORxV83Ap5hubCwcBGqCQQ3ABaR/GC+mFddV7cEY5+bBbhYgA69KBLi4rX8fHwx4PrtluXLX40ZMqSMuUggy8nItEiIiSH/fohfMnXMmLqEd+9qbz55gsv9MnJzpbzPnpXd4uDAcS4f2kDfBkme3QvlFfPmfXr74cOnuJQUCxzlFamktDQbUL4oDD+FL8cQn5JiRaPTlX7zMahMMc8vKjIBaQYYV0vAc4iYPnbslZW2tnBjpVVKQgKNpxwM7ONzN2yYWV5ZuYAN/Zz+fd4G7QhuyiVj7cEe31/29c2XlZaG8zZc90Hf7/DEEx22NxkpqT9y3kmlUvnA/C/EHDMEmOUTZP4VWuLiYlZRXa0Pri1ayOQBFCpV9vv/MHQEGtEBfhR8U7H23SoVVC0cNxgOD4yI2E2j0XY5Ozh8kRQXZ/BaHcjLyFAGGBv7F375MhEjyA7JhiVLyoYPGFDfya8bcuij+JsGmiQi8nDtokXOy+fO7fQO7Ju0NLWir1+XgUt91NvZoy+ZOHJkjv3s2WWoKhCcTlNLC9+xCxeMLt2+vQK8VO7mn4enLL4JCQl9HWhsDC384mHy37kzT0lBAS1KEZ1CQkyMLiEu3sRcdHZZod3a1iZRU1fXE+u8CxO2EXn/vvq1R4/YbsEoLSlJg9Zn4BK6KcHTb9/89x8/eo8eMqSQB5v6OOzPN8ZhP5ClMxiyQH48AMZ8d5BeCAgI3Azz9Y1VVlD40rtnz0Y0enAeqR8/KpdXVu7Auu/YLFT6VYuRSEVmBgbf5+2Ecx4eaWKiorha4sLglj1VVX80HPnbKbLosLBP36/9L1wgxaekwMAnY0orKiwLiouh71Y4bpNQK0H8yQD5F8P69//06NWr4rLKSqh4QFpkzgIedZh79upVKp1O37tnw4YvnQk8wekcdnGJufLwYRy4HMkFxeEGfxCJ6xYtct9oZ9clxZGbt7cl1u7nD8EeoJCcgqoBwQ2AxaB4QFjYHKz96FB3AHf+s7TV1dNsrKzeg+s0cVHR5E3LllWip4HAkU/MxaI0DveC94C+1d5zYD3IMRMRiMXaLXnxVADKunl5zUu6ccODlxp3THKyIlifDsM6fzIGnm6bRKPRJtpu3PjG3NDw1cQRIxLAey8d582r5MU1EyfyPD5eyPnw4U1Y+9FYVgMVcVlWFhbxBn36JCrKysasnD+fMP43Ny5dSgYJWh8mvUlLE38cE2PKYDBGBEZE2GDtEZFlUYtB/Ir/KQDHDx9OORMRkQQGWBuMc44eIv4+uS0IuX5dRFhIaPuOtWuLebAOoAXFWZCGYshPAruJc7Kz27Z28eJMHO4FLXWEUJWyDbioRApABFfgGRioBedKjPU+wpqYCoB7nq6uSTo9e+YN7NevCj0BBIuAG23wWCheCkBOtbiHVr09iJCR1QsW5CSnpxfVNTTI43nf2oaGxWC9dm6lre03Xmncj169GvylrEwdh1tBA5eBKRkZFiBBP22zHebOrUTqP87g1tOnepU1NTO64aeSe6qqXnFxdIzup68PN/DqiVwvA0xMmkCKZTAYscZ6ejeg64Hwu3dtwb9GYyjACOIn/G3MExEWfo21K1EQnAlUAs4LuX797L4TJ/pSaTSemtOEBAUZAXv3wh29N6gpsA2GgIBAopOdneuaRYviBAUEOm0e30ahYA7btsEjHwNQtbIPDRWVwp1r135ENYHgBqITE8djrAuwBN1vtImSSPcmjhgxMzosbAlIZ2wnTUpEyj8Ei4H+zZpxupfI7adPde+/eMFRFiR0Op0PyA3wCJw6EfIz2NSUShIWvoH3fVvIZG2wwHegUKk8cVrrQXS0yK0nT6BxCp4uquD6qObUvn01Asj6jyMAa1o+Go02HWOdqzI6WLMUgfl7/zkPj/mR/v7HpltbJxFd+fcjfHx8GMhz1o41ayKA7GFvZmBgD96G7gKQbgfxN/7mKyTi6NFnfaytq8mtrcqoajgWYSAAjQ2KjLwBhIPdrsuX35WUkOAJZ8Fw4NPT1v6sqaZ25XNJCYwSy9Zdjy/l5YK1DQ38MpKSnVGCcaRvEjBxvl6/ePH69UuWpHX1Xu4+PqpRMTGHMPY56UfAAUVIKEpJQYGCagLB6WTm5QkzGIy1GGvcnDSCuSehh7y8H5ClHoF+Q0c1jugutNTU8iTExBoam3HRAfLVNTTo1jc29sLandxzBKkfP8ruOXbMgkgyg2GfPjfKq6rcMHyPAYs+j4+fcyw09IGzvf17bm7XzS0tfO+zsgaB9ggtmfA+nRatrqxcCtcOCOJz7upVrTvPnsEoz6wIVtooKS5+y9nB4bDDnDmZ3V22oq9fJcsrK78HOITy9l8DuZmBQT30C9jR+0lJSFBB+nbnzJmIeRs3xpRVVLgWFBdD1yc9MBREEfGLSfIuSI6oajge/fPXr3uBaU3LWE/v5JwJE5p4odC62tqUlba2r919fD6AlwPZmZfwu3flx1tZiY8eMqShE1//wIHVn7RhyZIN6xYv7rLy72N+vmjup08wQqcO6sps5xGqAgQ34Orp2Y9Op7MiQEADmHuCDzs7+w/s1+8zqmlEd7PC1vbbvRcvyt5lZvbD6ZY6McnJRmMtLVMVZGU5xXpEEaTBRMqQ97ZtX8ynTXsJLifiLe6mZmbOLvr6taCnqmoDt7brguJisYCwsLGwvDjfunaouXm8opxcPRo9OIZBIBmwYv4WFBQ85ezgcNBhzhy2tIezV6+OOnftGlzzwI0C2J//8p2+dcWKQjFRUWgQUgpSDUlEpGjBlCkdcvEV6e//JS0ra/tWL6+E9JycVVi7myzk6o3H+ZkC8AmGFIDcQs+Q69d3iIuJiTS1tByxmzmzlRcKDSb17MGmpq8TUlOhE1R2RkOCuzmizMG8Q2x2cCj0CgqCDmg5xZdhjNOyZe5rFy1Kw+Nmie/fQx8tcDKUQt2YreQ429tno2pAcAmTMRbsfqsrKx/zdHE5ZmFs/A1VMYKNvAVpLE5tXPrOs2eDVs6ff1tBVraW6AWHxwP9L1yASiJdgmUNWvLcYT4XPH0Zi0cnJi5w9fR8fmr//mhZKSkGNzZo33PnoBXqHAx/q86MKaNHp6opKSFLbQ4g9/NnEhiPYGAiBZxvDRV+AdtWrvRil/KPiSZI1tg/fLh6BgbCP3DtDv1V1osIC5e8/fDhE9ZuJBKzbdWqTEU5ud+e0DHR12/wcHGJzCksTN/u67ulhUxejFoVb/MvISFg7164gP+KqoZrkGxqbnY6Ehi45fLduzwRGrx3z57NOpqaD/n4+CrYnBUlWP+d+eLYYcPgbk8uB1Q3A9Rz4qZly7atXbgwHlx3WQhNy85WOXnx4koCCvK8yAPrYcNaUDUgOB06nQ4d9I3E8D3+C32ehlz28zuClH8IAgCP6+Kp0JhIp9FUOaHgFCpV4Hl8/HyM9cF9OoSstDT14ObNUDGbw4Lba8empGxpaGyU48bGTKPR+J7ExkJFRR+8bz1p1Ki0yaNG5aAhgzOoqKqSe5+V1RfDdwOPys/HF75j7Vpvu1mzqglcfDimQd+mRq1tbeOuPnzoCNJBkG7NWb/+gY2dncOJixfloN9/BuPXS7B++vq0ORMmpAUfOrSNn5//KNYeoRzBo/yrI2mrq0Oz0zuoargKuYamJrf0nJyN9Y2NPKEEPLxlyzNjPb1UNmcDCs6djchXA1I8wauZISYqGu22cqXjZnv7GJKICLWrNwQTvOik5cs3llVWQkEemaizF3IfLa2nQFBAzoMRHI+7j0/vtKwsRZxvG38/KGgvJzkJR3Avutrar/n4+JpxvKXmlJUrZ9IZDMI7SZvs6AgtxaYTLV+CAgLQD2CWiqLiPahwwPn28LlMHG9vvyq/qEiE29ozeKbQn6MLhr/VdoWslNQzGSmpNjRqcAwwIBGeLoEYkuLicXudnI6stLWtEhYS4qS64GeuLbVAv7f+mJ8f7BkYmKU9cqTPrSdPLHIKC//T3+jwAQNKwv38diopKOwDL6tR0+JN/jWoSktKNlr27w8jqSKrD+5C4uKtWwuS09P1eajMUOBi57EIuGMj06mZTkqqHvonAZeE9d3Iz8+fuHHp0o1rFi7ExV9hzNu3gsu2boVHPZxQdyUEyZ6urlkiwsIMVBUILgCOx3g64m8aYmYWJistTZQTE9LoEfM23m5ulYKCgngH7XB8EB3dg8jljk1OFqyrr9+AsTnw26/ob2TUtHjGDOgHsJgV929oatq83N19akpGBtcETIt/906ruq7uICvuLS8r+2lQv34xaMTgKOBpKjyje5PNDAzC7GbOLCBI+aBxTleMHuDmptOG/fuvLXFxWZOQmirxXx8G68vGQ87OAWpKSr4Y0vfwJP9SACrKydHmTZ4MjwFnoOrhOqDyrwevFHb94sV38TiS2gWkQq5f16lvbOywUKasqEibPX48FOTTCFq9rzctW+aMl/IPEnH//qSK6uqdGMGO8PAwUEAuQ9WA4BKUMHx9wmbNGjcuUbVHD6JEyO6HHjECEIXz/XoeDw1dTuQCX3nwwKy8qmoCkfM4evDgRGNdXSjTscKiXjbv82fXh69eDeGGBhyXkiKzzdt7/ddv34ax4PZ0DWXl+9PHji1HQwVHASP/4mbBLy4qWuowd+51IhQsOT1dMDY5WQXDZwNDs6S83P5GVJTS7z5oY2lZ5+HiclxSQiIMNS/e41dm1dAvQgqqHq4DBpTgmWOV4yApxKkAACAASURBVIcPL+Xj40tmZx6iExMHtrS2dkqhZT106MepY8a8BpdEO6aQ4OzgsG3V/PmJeN3w+uPHQ18mJW0Hl71QNyUEZeD5vjHQ0WlGVYHgEvBWAMJNUiIFyBmMHjHi2M6dTzGcfTsVFhcvORoSMoiI5b355In4i4SEpRi+1kG4Y9inT7WGqmo4uKxjwe3hUWDT648e7QZylBEnt9/MvDzhzYcOzckvKoJB4MRY8BPQR+Z5NFJwDo3NzQLbvL1x9QMpIiLyZvTgwVVEKB9o64rZhYVaOK7PoW7njwxPRg4aVB908OABcPkStTTe4qcKwGljxjSttLV9hrWHnUYgOJlINv/++IKiok4dzZKVlm4z1tU9KSYqmoSx9yjz/wQncVHR59vXrFmxcenSWJKISJd3smk0Gn/YnTtjNx08GFhbXz8AY0GETkSHYchISaUY6+klgueNjv8iuAVBDL8AIG1LZ878MnfixEYiFGyJi4tZZU2NAXrECF0trS/gTzSe92xpbdXxDQlxO3z6tEZzSwth/AE2tbQIpefkLKypr7fF2je4Cc3pfftu9lRVZdXRU8GK6uoxi7dsCXkSG9ufE9tuRm6u4Hh7+1kl5eX7MfyjvbZXkoDA+TtnznxBIwXnAIPBFBQX460MJsQpR3JrK9/Xb99MwKUpu/IwzNz88/kjR7aAyyzU2niHny62+fj4MFMDg1glBYUcgigeEIhOYWNpGQf+sHOXR23tnj3mnf3yqgULiox1dU+AS7ZbYgkJCsZtXLrUadX8+R/gGIEH1x8/Hu7m5eXHYDAMUWslDC3jrKwSp44Zg4RkBOLntIIxsAqvcbArpGVnC4MFhB2Gr39DBIciJSlZM8jUFB4DxvNoOowuOTYgLGxdem6uDBHKSaFQ+PzPn+8fGBGxCryU54RnA13SgLnVB1w2sOo3wHOyWLlz58nI+/cHcJJPwIR37wSXuLhMAfmH0UmVWPQz5TZWVkFEGLcRbKeECJkoKC6W8jl7djK41GZnPtR69Mgw1tMLBpe1qGnwBr+0tpk8alRJH03NpzgLEQhEt7Jp2bJ88OcFm7Mxpytfdpgz54awkNAFNpfh1SZ7+y2rcfT5d/nu3RG7/f29wCVS/hEL6BvnLqoGBOKXwKPEhPCn+yA62jK7oAD6PxNCjwWhrKDQumDy5LfgshDnW0MF89LgK1dWtVEobFcs+Zw7p3nq8uXd4NKMw2RS6DrlKit/g0KhDNzi4XHczctrSkpGBuF9Kse8fSvp6uW15FtVlReLx9VroP6z0SiBwFinZO4QAWFh0HfvLHbnQ79375YJw4fDcSkWaz8mj+Byfnfc7hqGsy8RBGdS+OWL6PHQUE1Oy7e2unrVhiVLHmJstKCrra8ftf/ECdXOfn/CiBGUY7t2HQGXN9lUhFgXR8dtK+bNe4vXDSMfPLA6fPq0R2NzsxnqXQTrMxoaL9ctXvwB1QQC8UuEHkRHKz6Li2Nr1NHYlBSN648fr8DYbD2AIBwweFg8KxbND1++dN24f/8adhbuSGCgSvCVK8fB5VhOezBiJFLb/k2bQsAlK6OPQhO3AR/z833As1pdWFwsQdiGmpWl4OLp6QLyCP2QsdIHdM7GpUtvaqqq1qPhAQHoy+4MbPHwELv99OkOcKlChAqZPWHClyFmZtDYpA41D+7nPxWAoV5e2TKSkig6DAJrIZPlfc6eXRx682aXFhq19fX8uZ8+SbS2tXVLMBJREolmoq9/T0ZKCu5sUNlRdxQqVTE1K8u+qqam02WeOGLE53MeHvtkpaWfY90XFIQiLir6ZMfatWvWLVoULyIs3GWff1QaTeDS7dtj3Y4cCQBtAToVF0C9i1BQ9Xv1OqqlpkZFVYHgMuDCD7cTDd+qqnQqa2rYpnh7/fat7GJn57VlFRXQwlwQPV7Ed6aNHVtnP3s23DBkhRsHmfvR0fsctm3bAWQ5+e70CdjU0iK4/+RJo5NhYeeBDDmBE+UHAQEBhmnfvm8V5eQCMBYeBWau77Q/lZR4WS9d+nC8vb1xeVWVGFHqofTbN9Ghc+cOnr5mzdUvZWXuTCUIq9pSC1gDXAFrgddgTYDcWnFen6GrKyvjemSXRqMNLykvZ9sGHpAfZN5lZkKl9xii1LOKoiI9zNf3uoaKShxqddzPfyoAhYSEGKOHDInAkDaYa4hLSSFBp6Od+KoUjU6fn5KRMaCqtrbTk/SNqCjZ0YsXLw+KjFzwIiFBrTvKPM7K6tueDRtOysvKQgs2dkz+pKT376efvXpVt7M3gD5Lxg4blnpw8+aNPeTlYej6FhbnmSwiLHzDyc5u7Upb2zR+fn5c6u3Kgwcjt3l7+1FpNCMWCnuILgwRZ/bvT0PVgOBCPkMdAo73Mwbz4cC6hoZuV769fvNG0n7r1k0UKnUThgInIf65YObnh368nyrKyUErQNyPczEYDOmomJhtQJbz9b9wYUAbhcJyRdzDly/FjoaETAyMiDhBp9PhopljNw9N+/Yl+2zbdr2nigp0s8TqzTZB8HwsM3JzH6zfu9f5ZlRUv+raWra5CyirqBABeTBZ7u6+sbi09A6FQhnJ4mfJUJCVfbd348YwG0vLNjQ6cB4SYmJ00F+gaxrcnh+YtxVcPT2nsqM8BcXFyuv27t2RU1joSLT5W0hQkA7Wm/4YmwxmEN3HbwVXF0fHDzeioqAPtemoujif0+Hh6itsbQVJIiIdsoQIjIyEpvkG1x8/HrFg6tQoeRmZzjoKhTsu4zwDAy0V5OQezxg79t7EESMeWBgbf2NluWeNG/fm8p07e6tqaoLAS3U2VL1eTHLy1Cn5+fl9e/fu9CQ2ZfTodEEBgW1OBw8WN7e0LAdvybEgr/BZhDo7OPivWrAANwuCsDt3Ru49dswbQz7/iArFcd68Y9BROaoKjkUcLJC15GRkeDkgRNtgU9MysNj75xwHFxB4ujSRvXz37oIlM2Y8kZaU7DaH4o9fv+65089vDbmtbT3GAZFPEewByFZN4Xfvnqmorp4EXrLC8gvec0FAWJh+Q1NTSD99/dvzJk0qZUVZQDl09xw7triZTJ4PXvbmhuczavDgTxYmJieKSkth9M/usCRWj3/3bidIk6aNGfPcsE+fyNULF77vzjL7nD3b72N+/lQwhkHrTVPmeoDl84GOpubJmTY2KMIpZ9MI0leQtHC6n2hBcfHSZ3FxSWOGDi3sjgLQaDTs4KlTPT/m5bmBfggjlxPyaD5097TDzw+ODf1Rs+NefqsAVJSTq9+yfPlV7+Bg6GsDRZnjfKDVHdxt65AC8ObjxxbMy/EgncG6HilIorK6ekZQZOSIp3Fx9soKCrfUlZUv+bq7s0wRuM/J6cn01as3kVtbYVTd7nYAK/EuM3NSYXHx3b69e2d25UYTRoz4DPrloYTU1LeegYFbmIM0Hjuo8IhvIhDifWeNG/esv5ERbtGgYMAPjzNnPFpaW01QFyQsiTNsbN6iauBoBlx//DgY4+3gXdkMBsPFxtKy+G9Cra1tLhgzG/OLivD8reFbjxzZci8oaBOrC1X09Sv/Fg+PgZ++fNleWlExGmONUgfBRexev/71zLVrXzW3tIxn4Rpi4MVbt3TuS0vPBmPPFVdHx2sWxsbVuExI798r+Zw9a5+Vnz+9mUw24rY2v37x4tdv0tJOFJeW+nTTT0LLv0G3nz0zi4qNnfwiMTEBvL66a926GCNdXZacKol/947kFxIyEFzOffvhw3AKldqrO9eSoiTS9T0bNtxEowHHA8eUHAw/BSD/l7Iyy+2+vktBG/Eeam7eyOoCgPl7wLVHj/zApTnWPcrvTjHTxqZhh5/fFQwpALma3yoAod8vMwODVzKSko9qGxpmYujYHqfTiykEdNQSYgDzr/ZiZ+dZqXfvZoJBs6smwtD0WaGwuNgKpEH8/PxbHr16ddFx3rybM2xs8gQFBGrUlZVpeBXcsE8f2r3AwFvL3d2raurr99c1NAzCutd30lCnAweWGOvp7ddQUenSUTQgYNeZGhhcFxIUfHrp9u0ZYCJbRaXR4M64VAfLBJ9hvZKCQqGWmtqpEE/PcNDnycJCQrgcGwLCnkDEvXtj9hw75tVGoRij8YOwNMrLyl4QERIqQVXB0UgzE6/zr8iXvTQ0miXExGKwdssTvMYhkfdZWWunrFzZdnzXrkPyMjL1kuLiuFrQVtXWkhqamuQnLl++uqGxcTV4SwZDx34RfybztAFZY392QQHcwFVg4U/JVdfVjY5/985ywebN24Hs9tjM0PDmwc2b4WYnDMDWClKblIQERU5a+l8yXWlFhUhrW5sQc1Es6ublZZiWlTWHSqVObmltlWHKNFwnO+hoalIenj0bYDRxIpSvZ3ejPCrcQiYbg+dlAK4XzVy7thw8swfg+sXi6dPT5k+ZUs98ZmRpSUmqrJQU5TdjlBAYo2DeoYIWWiWTXD09DdJzcmYAGdCS3NqqwRyTu/PYNhyH026dOrXdQEenBY0GnA1JRKRCVlo6raaubiyOY4FkSXn5lqWurvRQL6+AIWZmlXjmmU6nY0WlpaI3o6I0gyIj7ZpaWuyZ4zChxzIJcXHq+SNHXti5usLd0p6o9XEnfzTZDB8w4IvdrFm3jp4/b4WxNkQ7gvUMevXmjfisceP+2Pnw67dvRcFMOpj5kq+ZTF4C7nES+tbDUyABg6UKECJcfc+dWwvSCwVZ2fD9mzal6Glr5/fR0sLFokWvVy/q64iIFzefPHHZf+LEoYrqaqtuFEoEgDBr/zIp6fGiadNedLnzCgjQV86fXwPSue2+vlera2vH5RcVjfuYn9+L2U+Vsfad1h93mqDiF1r21YFB/svIgQNzwfUTJzu7p6BucI+OFn7vnvV2Hx9fcGmAuh5hgYJyjNuKFS90tbWR3w8EN3MHpLU4C+BCqZmZa6xsbaVsJ0067756dSpYqLR2qUMyGNj96Ghopa57+c4dSzAH28Fr9PgQHSXi6NH3y93dg5PT053gOpqFPwX7lEgLmQwXjI6vkpIcQZ+AC+oUrD3i7ZdRgwd/nTtx4r8sbY4EBvYq/PJFhSknwI1CRYxHAoRJiImRLfv33x+TnKwKXlpi3avch3UsCp6ZFvgLIzuvCQgLqwUJWlp9Aunj+OHDK6dZW5cz5QQoO36XEaDCFipnMTBGqcKgRODShKkw6IO1b0azk0/9jYx2KMrJFaNRgPMxNzRsXLdoUcb+kyfhOgXPTU5xcmur++ItW1SO7thxWltd/SPcOOnKDXM/fRLILixUAP1Kf/OhQ6PAW4swDnJdAH3Oi5FI0J3DOwwpALmWP95tsrKweHLvxYu3eZ8/j8fQ7jMn0/PQqVP9Zo0bV/anX/A4fdoILEhkf3hLC9xj8jgrq3MsyiNUWk2urKkZuXrXrreD+vV7bmFs/Hjd4sXJQFjCxSJwxtix8QL8/G4uHh7+zWTyoG6sf8Xd/v57+Pn50xZMmVKF100Pbt4MFbrX3mVm3oxLSYGKP02s3doTTpSSP3wUCt9QcVshJy2dPX/KlK+sKij0+Qct/zCk/CM6tUC4um+ir/8JVQWCm1k6c2bClsOHK+gMBt4uIKAvH/uI+/cHUqjUR8qKincMdHTSp44Z88eW3kVfvwpevnsX+qfVp9PpBqcuX4ZWQQOZYzmKlo7oFAqysk0r5s27sDI9fQh4OaK7fx4km+8vXiQk/JUQ/4+AgAB2dMeO3O2+vh6PX7+G8hK7fSTLMMcdmLBHr179lbB2BeCPgRigRZ8SQau1aoiZ2alDzs4vFeXkaKiVcQ3QLx00WrDA+b7QAnkFWG/2B3LwPSsLi2j72bOTesjLd+ik3PGLF7Wbmpt13n74YJr4/j08PjuAuQ7jPEWBquq3MUOGJD2Lj5+M5A/u5I8VgAP79SvXUlMLz/v82eofCgUE5zEPpMcd+LzNP98orahYeeLixfvrFi8u7+Bvi2J/7vsALqpGgoF0EEi2yenpCQNNTE66ODqm4FEJYHGWyM/P7wQG/VNY+7GwbqGNQhly+NQpZ7DI27No2jRco5KZGRjAI/vwGCdMbAvlfvHWrVGegYEeFArFCHU3wpNjrKt700BHBwnKCK5mzoQJjS6entcwGm0tC24Pj76ZX3/8GC7gp4PFQ1HkgwfQ8fxHkDJA+qfVPTwuB5V70NqpZ119fd/3WVk9mK/hX+RzGYELQG7Km2ZtHXT76VNomaWKaoRYKCkoUPY7OT0H8tLh5wkJMFCaMgGzyUfQfP1LxDbR17/k6ep6TltdvQG1Lu5h4siRH5/Hx7+PTUkxxfA/Lg8NmwakZWUZgbQwITW1WFxMDO5WQIUjtGCu+8laVoepD4F/eye8e6cG1nfyWLtinKPnbzUlpbZh/ft/fhYfD8sth1of99GhDnRs167IkQsX2n6rqpqEqo5zqaypmbRu796BJ3bvTvrdZ/cePy6bmZc3A/vHkakWMtkoJSNjVWNz80EJMbGOHBuEg6NMB7MMB1oDMCDrJaenT750506oz7ZtntZDh3bZX8MAE5M3cjIyu6pra48zF2PdgVBtQ8OKtOzs8mYy+bQYidTKLW0L+vwLv3t3zP6TJ73Ira1GGPL5R2j4+PhaRw8Zcmrb6tVfUW0geIFIf/+g2evWLQCXsiz6CWgZYwDkpL4gjcHaj8xBFxaMnyyoBX5IXOnnDMF+FOTkqF5bt16pqq3VjXn71gUjsAN6XkWlR4/WgH37rqzauZMenZgYhKENgM5A5efnf9pHU3Oftrp6NaoO7kJdWZncQ0EhFGsPRqnGop+BY6MuWGtClxtWzPmb+ov5W/CHv9w4f//lugFDCkCupENHeSXFxSnD+vc/AC7rUdVxLnQ6Xb6wuNgl7/Pn/zTfLy4t5c8pLJxNpdG0f/JvsSexsXN2+vkNB0JlR8yDoXWDfCezLkChUntU19Yuf5OWNq2FTBbqal0oycvTLhw58qx3z54XsY4HRukK8uF37zp7BQXNbmxuFuaWtnXp1q1x2319j5Lbo/0iVwEER1hIKO68p+cFcVFRBqoNBC8gJSEBHVvDCHd0Fv8UXAx8D2wA/WFJ/yNJMRf5JObnkPIPwTJESSTK4H79DosIC98HL5G1NwEB8zDlord3uGX//tBvchWqkQ4BN9LvTxo50uHojh1I+celGOvpJUqIicV3l4iMtVvq/2r+FmPO79w6f5ehcYh76fACfde6dWngz2VUdRyNQFp2tvXNqKjp//WhFwkJmq/evIHWf7+ylNC/9ujR5ozc3D9yElpSXi4I7gkdoXY1kIxMQFjYZt+QEH08KsO0b9/madbW8IhWbTc/B43gK1e2ep45M4obGhXT5x88vtIXdTGOoGLx9OneqBoQvISinFzt+OHDb4DLQlQbCF5io50dee2iRdvAZSyqDeJyfPdubzBGHWUuwBG/B27e35kxduzWI1u3lqPq4F4c585tdV2xwhNr92eOYCH9jYyqDHR0alFNcCcdVgBKSUi0ONvbX8Da/dogOBeZu8+fmyenp/80Uld+UZH0xVu3YMhyGJXsVzsb0PJvjHdw8ObGpqbfHikpKS9XiE5MhI6F8bB4M/hLeRYYiFdUuxqQmtjwHIxDb9702X/y5ABObkwXbtwYc+jUKS86g4GUf5zD1QVTp6KFIIKnUJCVZezbuDFu7LBht7DutfpGINjOmoULCzctW7YTY6OPYMRvx6h6MEadAGMUfE4lqEb+E3g889EMG5sdu9avz5EQE0OnGbicBVOmwOi0Z1FNsBZzQ8N6/d69m1BNcCcdVgAKCwkxBvbrlyouKnoJvGxBVcixMMqrqhi1DQ3/U+61kMl8FdXVIl+/fZOfuXbtrqyCgs3Y7wO+kN5lZjqOWLjQc/3evUrNLS0/VRbCezu6u0MlF27+I6lU6oyE1NQNeByhdZw3L3rK6NH7+Pn5ob+DbhUg6AyGYci1a5d2+/vbwvoH5eKYRhSTnCw6YMYMu4OnTgXXNzaao27FMSTv37Tpgra6OnLngOA5VHr0aDTQ0QkQEhR8193jPQLBTkSEhWlrFy2KdXZw2Ayu4QYQnQuLCY+DcvTcBsaoWv+dO0NHDR68no+Pr5BLn1NXIcvLyoZOs7ZefcjZORdu7qAq4X6EhYRo5zw8TmPtlszombMW6GufgqqB++iUj66h5uZkLze3Cz3k5Z9gyJcIp1KzfM6cN2OGDPkrslFNfb3U7mPHxptPm+Y6aNas+9W1tVD5J/anMuW3qqrVt54+DXHz9h5cWVMj8s8PJKWlGVfX1R3G2v0m4IXY2w8fNm86eHBZeWWlWFduJCEm1hqwd2/olNGj54OXr0Bq7s6HQaFSdc9du+YF6n9D6M2bPRgM4s9p8e/eyc53ctpQVlnp1UIma2HI5x+nUKehonJZT1s7RVBAAAlPCJ5ky/LlBQ5z524VEBDgtgA4td09fyE4C6gEdLKzS9ywdOkakohILJfJ8U16vXqdkRQXz+X0goAytIV6ed0cPmDAHPAyGkMWy9+BytAS0759vWMjItac2L27DFn+8Q58fHyYtrp6rq62thfWHqiCm549tAAhkg9LqABsQ62O++j0gn3K6NElA01MYKQq5G+B86Boqak9Gmxm9uT7Gx/z8nqH370LI+HuA2lQJ+4JIyCNuxkVtTklI+NvPv4evXo1eP2+fdCfiSELyqIE7u+8+9ixmdW1tV0+Duy1dWvs+iVLlg0zNw8ELyu6+bmog7QdlGXf5bt3tYncgJ7ExOit2b17J7O9KKAuxTmCs7qy8utDzs6RQ8zMqKg6ELzM9tWrX5NERHzAZR0XLR7ugpSOni7id2xYsiQNpI3g8jaz7XA6zcZ6epE+27Yd1dbQ4BqlwPFdu1KAXLqmv5FRCNburoaXge002bJ/f/cTe/YcERcTa0U9mffQ0dSkebu5PTHs0+ck1v3+21nJU5AS0RNGsJouWeyssLV90kNePgxVY7cCox/5gbSbmTyYAv8fWzFIS0re89u+fY+VhUXRD29DE99GHNoTXEj9zWfA3efPZ9TU1Q1lYZ30uf/ixT6ngwc3/+kXbkRFSWTm5f3r6LAoicRwdXQsPLRly4EBxsYH2TCxwOhSDgcDAk6v2LFj2rP4eCEiNb6cwkISyNf0nUePnqisqVmD4ePPEdF9VGuqqXmNHDQI+RVCIAA71qw5B/4EYJx/zAUqPFInjxoVYGpgUIqeLOJPWLVgQepme3sXcHkS42xFOL2XhsZVr61b96ZlZbV+LikRxeu+GJstYGSlpaFcmu3p6rrHQEdnE3grl1fbq7KiYmTggQMr4SampqpqA+rBvIuZgUGzl5tbKGgHvhh3WAG+27F27T6MPf7ofwV0pYBOenIhgl3sfK1Xjh3zHrlw4RTwUg/jzjDY7BTmyVISEmQ+Pj64w5UH0q3gQ4euqCkpVf/QIaHSDVq+iZ24dEnt/osXg8H1aJD6wLnyh/vBowPQKuBcpL//U8M+fSr/1hAEBPJJIiKh5NbWrRjT75+wkFCdKIlU0NjcrEWj0ZSw9qAf/0WJw5w5z60sLP65Q9mEsd5/iXZ0YuK2oXPn9pk0cqTfusWLc6DQJi0pSX8QHS19ICCgFxAMy410dRteJiVJ7/TzcxIRFm64derUCXlZ2VpxUdG/DXBAkKwKOnTozNSVK0cUff06o7v7ZUNTk/XDly9N49+9u3V63z5vE339z/A4CDsaYmtbGx9oF0L2bm6qn0pKdn6rqoL1IY2hI7+cBk21R4+A47t2ocAfCAQT20mT6vj5+I7v8vdXAGPdQuzPXV8QClCGcuthw/Z5uLi82XL4MDoOh/gjhAQFGTAwyOzx43d4BQWl3nn2bA+NTtfgsPm9VVZa+t6V48edlOTla0Nv3uxb19CA1+YplF8JsWGmp6397ZKPT9iXsrK4+U5O+5paWqaCt0V5YO1FBWuRMrAm8b124sQFTVXVatRzERBjXd2q6ydP+o5evNiivrFxAsaZRglwvv4sISa23bJ//zyC5Q1uJiIrWy5EsKs3UFVSqjDW01v/ITv7PHiphqoUN4oMdHQOXPbzuygvI/O7zgf9/VR7urh8AQmaDvt39McG9uvXcnT79uOXbt+OBi/1obJgrKXlW/vZs/PdfXzkL966Ba0kJv+HUFgqJyPjY6Srew1a0f3jf69BWskUVFg3gjIYEsWlpXanw8OngAStIh9f9vUtevfx42Dw/i5bJyfomxDunEI/hJrwO8PmzZvU38jo1Jbly6FyFO5+U5llhItASQqVKsWm5w/z0KO2vn4FyPccZUXFk37bt1/XUlPLU1dWbuyODFAoFCwxLU3y9pMn+hH3708Hby2HeUJdkyOBCvgoIDwfU5STQ7t5CMR3IUhQEFswdWopHz//tsOnThXV1NdDCxs5Duvb+TZWVpuCDh68j54ooqOICAszNFRUGo/t2nVeWFj4ZVZ+/qH3WVkjmfM9P8HbfomutvaJC0eOBCjJy3+XjTQw/BT5dIxAx6PB/E0FKTfMz8/OOyho0sf8/DVVtbXQbY8ElzbPAiUFhceHnJ2P2VhaZqHeivgnoH00PwgOXrrMzc0l99On1Rw2f8OxJa2XhsbOMwcORAkLCckQcIxFcKPs29UbiIqIME7v2/fGxdPzQlxKCvQlIo6qtcvUWxgbBx1xdQ3/A+UfbkwaNYoCUgq4TPnxfTDxVrW2te258uABtCrs+4+vQYHrvd3MmSEm+voXZ48f/y8rNeuhQ2NfJiWF1jU0rO+m9iEPkh1MCzZvhpaOUCEpzfyf8T8+OyA5Pd10vpMT3OX4jLVbSsKdY0WQVEEiwmAsW1ZR4Q7yOHvU4ME3h5qbvxQXFU1aPH06y3zBPHz5UiYzL2/w0fPnoTUptPCFz14AdU2O5eM4KysvSQmJGlQVCMS/mT95chX4c+RDdnbzxVu34CJChwOyDeWD+EkjRx70cXd/gZ4ioqt4u7kVlpSXr3Dx8Jj2+u1bvyfZrAAAHDFJREFUaO0/CsogBMwqXJjGA7nTz9PF5YG6snLLD/+TYcpxXEt/Q8PW8KNHb1x9+PBtWnb2vPPXr8NnZYa1nwjiBqDVZfSq+fPDTPv2fWVjadmEeifiV2iqqdX5bd9+1M3Lqzo9J2cdeEsL4wDLWLDGfzRnwgRvGyurWP1evWgFxcXoYSK6BUE8btJTVbUODM5n41JSzMFLGwwdDewKVCDQPLGysLjsf+ECDJoBFTAtY4cNezTN2jobjx9w9/GRrG9shDukdcvnzi0Dk+tvLYIc5szJvfLgAQy7vgBrN7GGZsqFIE+pIG8fJowY8RGGZv/Zd2fY2LRJSUgceZ+VlekXEmIF3jLCfq5YgwJbTwxfE+4/CVDx/Xd7ErhdwD6l/yIhwRmkuaIiIumJ79/Do5xRK+bNywJtpsuK4qraWsHd/v79YB9OSE3tX15ZacasE0HULTma6vHDhwfv27gxQUZSEu3mIRC/YP7kyW3Tx449Li4qmns6PNwZvGWJEXfjo9Hc0PC0/ezZ54eYmeX8040FAtFZ1JSUGg46O19Oy8p6eSQoaFDR16+O4O2RGHGO17WKkkjnvLZuPdNbUzPdqE+ff7Z96LIGL0UYlK0Ie+R0zoQJRUAO97EwMnr0NC5u9K0nT5aCt00wzt2whT7Hri+cOvUGGNcSQNkqUY9E/An99PUrj7i6nl6/b19GflHRYaxdIU5UoPHMJd/t231HDx6ci54eorvBbWE/e/z4wuSMjL33X7zQpdPpvVDVdn7yy//8+RY8ylpTV7eIKciUK8nLl04eNSpXQECgQwt46L+tpKyMtGzbNmjNAC25rD+XlKjTaDQoHNESUlPbxMXE3oHrKzNtbJ47zp3bQCKRaPx8f9840dHUbHoZFnYWXF7D2ndVoKUcWU5GpkVGSuq3eRozdGjNsP79L0+3tr6DtR/N+Fnbg/cVCbpyRelGVNSkFjJ5GYPBUEJN4m9AAbx3S2trr9tPn44B1xsSU1O/iomJxYHrt6AfvnWYPfsL1r47zsB+br79l4IetDGhFTt3qoDLASBZUKlUSyDow9cyzGeEfHpyPlQwZkQZ6epeVOnRowVVBwLx34iKiFA2LVv2kM5gvL90+/ZyMA+tBfOQDEaMjU04plNIwsIZ6ioqOwMPHHilpKDwM0f4cNzvikLw+/yBdfEeeCgl6RjnHENi4FhuDGOjY3ttdXU6SMUWRkYlH/PzY9fu3QsX04vJra02QMaXZMpwfN3d9oUEBZOEhIS8L3h6vhxsZvavIG1AjuGj0mjaGH6nTaACkNCW88JCQvRp1tYfRgwcmLPJzu6a444dQ4EstwE8KwvmcxIkeJ+hCgsLVwgKCNwx0NE57+Pmlq0oL18vKS5OtH6PZ99GYxoLMNbTa77s6/skr6goz3H7dgcKheJIoVKhBbMAQeqSLCgomOyyfLnneCur17169qz7xee6Ut80HOv5e17weP40AvZDTvKXjGu5cZsUpCUlGQF79iRsEhJyvfbo0XmMe/1RsBrpppaW4yD9aCHXKzAy0lVCXJxv9YIFt0kiIuTyykqhzyUl/EZ6em1i//a5h1XW1PAVFBX12O3vb56em+sE3hqO/WRHFNwH+g/kl5KQ6PPqzZvpIPkf3b79nYaKCv0fAgYDDFRN4DdbwHdg3uARWWnwO9B6rsLc0DAPDGr/OaGBfNOYg91/Rpo7vGVLLkgx8zZuvB2XknIZyqKoWfwLPmYfkyirrFQHfwfCN48EBsIEBdZ8ptCa84/vwecFrT/hkWgTDFnrcjWg38Y5zJnjvHHp0ipUG8RkoIlJHp3BeI1qAjfyNFVVu6TsFhMVpe5cu7YIpF2rdu68nF9UtC2roGAQc+xkh9N9KPSVK8jKZoA59MJ+J6fbYKH8S1+wfbS0HlbX13clcEEWkAnqu5JhLXX1lwP79cPDdxpDT1s7hhMaHqizClDmS9ifnTz4k/sVsrtMasrKdJBKs6OioJuUBzv8/NQ/5ufbVtfWjs77/LkXs6xyLOwT0K1MmZCgYKaZoWH4rHHjbi6YMuWX0V/D792TvfLgAeynuKxvJMXFWzXV1DjCdYaMlFQrSCXPQkOvgvHq9nZfX3jaZnp6Ts7I5pYW6PcabqiLEGQhC8evctDGc/V79765yc7utqWFRQVR61ZWSooM+vZzrN3nepdRlJN7zwltCqzbGkG54TpMGadbpvPxsXb6VFVSooOUD8Ys94u3bkXcevrUMSUjw4ZKpfbE2HNEngLXyaDc2QNMTPzHWVk9WjFvXusv6hu2s0dwzOvC733TVlevxSPjvTU0CkB+QnDS6RRrqKjUd/Um6srKSSBPAXiUT0VRMYUT+qEYiVTH7Id4GUVl8jEY+Co/qTQav/bIkT7gch2Gjg7iLgi9unzZUFRUtGrX0aMzH758yR91/nxk3969/9ahzl+/Lv0uM9PqRlTUXPByGtYe9OJnFI0ZMiQcCOr3QCq0mznzlwsGIOwJ3HzyRAP8pmXi+/fwGG9/rN3X3vvxw4df9d+x4ypYNP00Su2LhATRguJiaIGoyxTmSsFAWGg/e/ZPlRJJ798LfsjJ0aitr9c4ev48PM5gjx49AtFhilba2i7ZsXbtS1QVCETnAfOXUOjNmyZgLpsIrgdj7ZsnyiyWcaDS7xtIUAn0YdmsWVFmBgaxM2xsytETQbCb9Jwc0WuPHhmAS9PG5maTyPv3oYwHFW8KzEVKVzYXoZIFnmTI6m9klGXat2+0hJhYzJblyxt+90Ww4Ddy9/E5Ay6H4lBMBliwP7lx8uQ4Tn5Wp8PDpcsqKoZlFxYOiXn7Fgb5gz6de2Pdb6gBn2k+GMdyzA0NM6C430tDI2XJjBkoyiiCpXgGBg7JKiiY8DQ2FloyGzPHKlYbQMDj6+lGurrvB/Xr91pAQODFzrVrUQRrBCHAXQEI7+cXEtITpKPg5QxUxbjy9cmFCyMOBgQsjk5MXANe08cOG3YBDC6+m+3ty4AwJhGbnPx/7d0JWFPH2gfwk4SEHYKCRMQYpCyKxq8WsVYRue67trWVKtalF7V1QbSiwsWlorJZN7RWi+KtWpdSbYuVgktxF0sVFDdkJwKC7CSBEL+ZEq23tSo2QEj+v+d5H+YcNQlzjjlz5sy80zvm55+nKZXKvkxD/ra/+4KTkH+7urNQeLqktJR+GYpohwGJs/4zZ0oElpZPRvOtj4oyII29afHnzr2juvGhDTwZuYjvIhfuUHdX11zrp/7+Y6Sxwfli3z7nS9euTc69f9+D7KJPi+mTkCIWi5X7ztChsX1ef/30eyNGPMl/8Ov16/qLQ0LG3MnKmsr8sQiHCIceoFHKfSZOXPbpRx/tMNDXr0N1APxz5FqmR65ldMS105krVxxi4uLoFDt6Q+3EqGfBKDrSiI7eThPa2KQumDbthuqmOZNcL6uaeuQEwKuokck4x06fpv8vaAoRi+qamnaBn39O2210FWHaGUhnHjg+5yVoSplM1Q1z+seTJuU4iEQSUs5wcXAo6mJvX/uyn+W/R46MWxYRsY1Rz4glZS+xeFdMZORH2nCcMvPy2KSNTWfvdCosLhat276ddoJ0VX2H0RGCHdT8ljdJ0FUN0md6ed1w7tyZfrdlk+OZR45rFf7nQLPeQBcV6Z1PTqb3lY4rN2/uXlZRQfPsu6j+D5ip4S3oQjV0peqr9Boe+Mkn99ry+bcdRaIcsbNzDY4AaBK1dwD+fiWXy9nb9u1z3bB79yalUtkb1aw2BSJb27VZeXmrSdlUtU9KbvBzRR06yAuKi/XIF5q5qsH1onwHd9taWMTW1tb2rayupg01Q1Uj7L6jnd2m41FR0bGnTnEjv/7aIys/fy45pn2evsGxFQgSvo2MfN+mXbu/PM2or69nlVVWGo328VlAbpZoHkOh6vX/crPDNzUtElhZXSTlFNrYKq+q6nG/qGiwqiGJ6akAjVfLZrM37wkLW+Xh5laB6gBQv9KKCi65iabXYZprzDjuzJn2G3fvph2B9qrrcyfm+Z2CdNQLXXmejvK73d3JKT1k8WI67YfeKFQb6utXdSLXddQ0tDa0DXg3O5tOteOpgs08PycfHe1Kp+3Th1U1wvbta40MDRt9c3Lz3j2e96JFC8j/yzVqaj8qeonFS2MiI8O1rpFQW8tk5OXxVMeFjgQ0OJ+czF8dGdlJ1WanP41UP01f8HJ0VLJEdQzpA/2cUH9/STdHx3LVfUVNR4GgytjICAsVgUa4l5PDq1MoHp/7Jh8tW9ZBUljYWXW+0/vorn9z3/o02tFHp9rShxeZe9evl1iYm9NRyjSq7YXCWq4eJkKCZmqSDsDHtu7dO3BjdPT6GqlUjKpudepUF/NnPRUpG+7hMejL1at//fMfFDx4YDZn5cq+l65dC2TUMwUDABrRruebme0KmjNn2YThwzHVAAAAdELyjRvCsbNm7SDFIWp6SXkvsXhETGTkSdQuAABoiyYdYfXxpEknHEWi5aSIG9HWh07ZeFbnH03qHbUhMDDl6Z3VUimH5l5ZEhbmf+naNZowFJ1/AM3M1Ng4fumsWevR+QcAALpCqVSyjicm0lE7fdX1mnocjnKYu/t11C4AAGiTJh+bOsfbO3ZmYGBwvVIZwDSsFAat2+XZH3wQzeNyn6zut/PgQaurN2+OO5qQMJVs0gSrhqgmgGZ3Y+X8+QEThg+/g6oAAIBXdeG33/SOxMfz5k6ZIrMVCJSa/nkV9fWcbfv2TWGeP9W4UbhcbpbPxIlFOBsAAECbNHkH4FB397otK1ZEzQ4Kook35zENI8uglZrl5fXD/KlTbxYWF+v/OyCArgY8KDMvb0BVdTVdAQ4dvAAtIy3k00993x46NBVVAQAAr9TGCwqyzpFIxj8sKxuWX1iYMmns2PW2AkGZpn/ueatW0WT+Y9X8sok4IwAAQNs0S3bKUZ6eZQYhIZ8tWrtWWlJWNpdpSLAJrdD2/ftnb//mmwWkaKXKH4llCQFaDh2ZcTto7twFH4wZk4DqAACAF3nw8CGrqKSEJsC3uHbrlnBJWBhdfG00add1Y/54UE8T4kczDYnuNVZeQYHZ9Tt3aLohI3VeW+2FwuM4UwAAQNs02/I0g956q3yVr2/Eys2baaNjgZov1NBMHtHVwZpw4RgAaJQMka3tKmc7OyQpBwCA5zqakGAmlcsdT5w/73Q8MfENsquXKvSf8de7/nz2rFN3R8d7LJZmPuu9nZHBWxwaOiVbIvFU80sXRC5ffg1nDAAAaJtmXZ96zMCBZfo8XtgnK1boy2tr6XRgHg4BAMArKbK2tFyyduHCo/1cXRWoDgAA+LMbd++a7P/xR5qf+c2Dx451l8pkdLosTdti9oJ/ytu4e7e33/TpP7F+f/6rWTJzc9lLw8P7Jt+4MYNR/8yiiyQqcfYAAIC20WvuNxzq7l6+Zfny0H8HBNAViOcw6AQEAGgsmph80a516452d3JC5x8AADwRdfiw/vcnTriS4vjS8vLeGbm5HUjZimlYJKMxw/lG+wUHv7EhMPCKpv2O94uLhUmpqQtJsRuj3nQ0dSROkCjHmQQAANqG9agFpnPS9zx58SLfb82ahQ+RExAA4GXVk0i3bts2YFdICDr/AADgibtZWe2GTZ8eUl9fP6xeqWxLdnFIsP/RjQKLdWXEgAHvrlu0KIdvZqYRIwGv37kjGjNz5u46haI/o/5c1MkbAwN9xg8Z8qumTn0GAAB4VeyWeFN6QR3Yp09ZsJ9fhLWl5WayqwqHAgDguR5ZmJtffnvo0Pkbg4LQ+QcAAP97kXj0iF9bVzeyXqkUMA2LebDV8Jri2FOnIlZs2uRUUlraoj1itzIyODFxca9PXrhwa51C4cGov/Ov3tHO7pLI1vYuOv8AAEAb6bXkm9PVgfU4nHDf4ODK6poaf7KrDQ4JAMBfsdns1M98ff3GDhp0EbUBAADPQPPWXSUxWI2vSVP1jPw2Lu5RbV3dio2BgWlcLrfZRwLezc42WhoePupKaipdSNC1id7m/sA+fRJ6urhU4FQCAABtpNfSH2BY//7lmzmcLdOXLKGjAP9DQoDDAgDwP2LD/P1Xo/MPAACeo4zEGUa9HYCUAYnRP5w82YnNZi/Zsnx5s6487xMQYJWZl/efWxkZ75DN9oz6R/5RSrGz86+Tx46Nx2kEAADairNixYoW/xCdO3as85k48be2fH5aUmqqc51C0Y5poenJAAAapMrMxGR/xNKlAeMHD07FlCQAAPg7Fubmivbt2hklnDv3L7JpquaXp4MGbO5mZY398ptvHKQy2QMba+uaqurqWnNTU7WOCFQoFKxsicRsU3S0cHZQ0Ic37937qri0dCDTkDO8SS6EHDa73N3V1e+9ESNu40wCAABt1SKLgDwPaVS8EfHVV8E1MtlARgNGKAIAtJDStnz+1oCPP14/Yfjwh6gOAAB4kZi4uI7zV6/eQopjmvoaRSLBwtz8p2A/P9ppJuklFt8XWFrKX+XF8goK2L+lpdEOPpvi0lLHoA0bBpHyKBLC5qg38nscSfnxx/E4gwAAQJtpXAcgtePAAadVW7YEkOJYEmY4TACgYzJmeXl97uLg8OW4wYNrUR0AAPAy7mRmcpaGh/tdTkmhaXVMm+Etf1+dnsS94R4e6Xa2tlmkLCFRQqKIeWqhv5Geng+SUlLMi0pKeKpdtMPPgoSIfG5hwvnzIlJ+jUQ31Z81l8KFM2a85zt1aiLOIAAA0GYa2QFIh/7vOHjQZs22bVPI5jwGeQEBQDfQG6kL86ZMWTfH2zve0MAAnX8AANAoq7Zscdhx4MAhUuzRAm9PO/zoYiRSVfnJdczRzq46v7DQoLqmhqPaRXMLGjINnX00uC1UZeGXDh9eTqc04+wBAABtppEdgJRCoWAqq6t5oTt2uH8TGxtMtt9gMCUYALRXmQGPd2D2pEkhc7y9s3lcrhJVAgAAjVUjk7Em+/ktSEpNDWYaOtng2ZRmJiYJYUuWzB/m7n6LzUb6cQAA0G4ae6XT09Oj+Thq1y5adOKD0aPfJ7sOkCjGIQMAbbsBIXFrQO/e/p94e/v6TZ+eic4/AAB4VUYGBo/e6tkzirSlk1Ebf4uOgEifMWHC+hEeHuj8AwAAnaARqwC/iIebWzmXwzlraGj4IDM3twPZZcVglWAAaP3oNKkfxg8ZsvLzgICj/Xv1wpRfAAD4x97q2VMmk8sLklJSBpNNY9TIX1TbC4Vrp737boytQKBAdQAAgC7Q2CnAz5JXUGDgHxraIzEpaT7Z9MLhA4BW7EFPF5cN8z78cE8PZ+d8SwuLR6gSAABQlxyJxLjv++8vI8VPmZbLr6eR2pibh+0JD/+MXH8rURsAAKArWlUHIFVRVcWSyuUmQz780Othebk/2SVkkBsQAFoH+oUr5ZuZnbMVCBbs37DhHt/UVIZqAQAAdauvr2eOJiR0WhoREVIjlb6D9vLv6sg1OO7Itm3T7IVCpBYCAACd0iqmAD9Nn8djTIyMakcMGPBbVn7+qTqFwqCiqqod+SNTEiwcUgDQUHR675XXOnUKj1q37j8Lpk3LNdDXx7QjAABoEjSvXZfXXitvb2V140pqqpNUJhMxup1CR2ovFH4XtXatn3PnzvdxhgAAgK5pdSMA/+zE+fNmyWlpg7bu3eujUCjcyS4jHFYA0DAFFubme7zHjds7wM0trZdYjI4/AABoNt/GxfVdFhGxvkYqddPRKpA5ikQH1y5aFOzWo8cdnBEAAKCLWn0H4GN7jhxxCIiIGEmK00l0JcHB4QWAlr7hIPGjv49PdI8uXU66u7rWoEoAAKAlfBcf32/eqlWRpCjWtd/d2tIydOeaNZH/16VLDs4EAADQVVrTAahQKJiC4mL9rw4dsj58/PiM8srK2eR34zNIegwAzYt+qcr5ZmaXhvbrt9532rTEdm3aVPB4PCWqBgAAWkq9Usn+PiGh2+LQ0OUyuXy0DrSR6XW31MTYePlPO3fuEdnaYsEPAADQaVrTAfhnPoGBdtn5+XPT0tOHks3OJAxwuAGgCdEv0zISaa937Xro++3bN6JKAABA03wXH2+9avNmv+LS0klks4OW/po11paWFxxForVBc+eedu7cuR5HHgAAdJ3WdgBSdzIzuYePH+/x0y+/jMvKzx9FdvXAIQeAJlAhsLSMGz9kyElSPj59woQcso0RfwAAoJG+jYvjpdy69XbU4cOzyeZbjHatEJzbls/ftdrPb+8oT0/k+wMAAFDR6g7Axy5fu2aQnp0t9g8LG0A2JzINuU+QIxAA/qkSEr8EzZlzsIu9fWI/V1esKggAAK1CnULB3rh7d9eN0dFeZHMqCZtW/iuVkoj19/HZ383R8dSA3r2lOMoAAAB/0IkOQKpeqWRy8vP1SdFyzRdfuCcmJX1cI5W6km0eg85AAHg59AtTwWKxqo0MDP77zrBhhz6aMCHNViAo5XK5GPEHAACtilQuZxUUFRmF7tzpcOrChVnVUumUVtY2ptdeubGh4ZmRnp5b50yenGhjbV2uj7y7AAAAf6EzHYB/JpPL2ZMXLuxdUFw8OTs//02yqxOJtjglAOAZ6khIOlhb37UVCGJNjI2/3h0SUoxqAQAArbnQKRQsL1/f7oUlJT5ZeXm0bUxzaFto6MelC3rk2QuFF9tbWe3av2HDGRxBAACA59PZDsDHLl29qvdTYqIdqYf+UYcP/4vs6kbCkcGiIQDAMA9JXJs0ZsxFA339Xzzc3C54vvlmBaoFAAC0VVJqql7sqVMiUhxE2sZ9SRu5u6ptbNjCH01OIofH5SZ7jxt3kZRPvz1kSJrY2bkWRw0AAODFdL4D8DFaDzE//9yGFB0OHTvmci45mT75HMg0PP0EAN1BbzDOkzg3ytPz6qC+fa+Tn+n6PB5WEAQAAJ3ybVwcHQHoEBMX1y0xKYkupudGwoWEaTN9BPrQLYXElcH9+qWOHDAgnaund3PMwIEPcHQAAAAaBx2Az1BYXMwpq6w0zc7Pt5oVFEQbOUNIDK2rq+tIfrJVwUJNAbR6NEfQIxaLJdXT0/uVlONDFy+O7+7klEfKZVYWFtI2fD6+JAEAQKcVlZRwSisqjEnR/JfLl/nrtm8XkTJ9WO5MogsJ+3qFgqVsuK9gNaKdTP/BIzabzXA4HBkpZ5C4S+ImiUur5s/P7iUW08U9Ktry+TWWFhZ4GAcAAPCK0AHYCF6+vl1rZLL+pNgvPTvbqaKqio4Y5DMNT0G5qCEAjUa/7OiKgGUkyslNRKHQxoaOKjjbycbm2KagoGpUEQAAwKsJ3rrV/nJKCm0XtyPR4SX/2W0SlR5ubgV+06cXoBYBAACaDjoAX1F0TIzlnawsB1KkeVHsTl+6JMqRSKxImYYNCXMGnYIALamKRAkJuliHpIu9/f1eYnEOKafRcBOLM8cOGoS8QQAAAAAAAKD10AGoJmevXLHILSiwZBpWEm5Pwixi586OhSUltEOQPgWlOVQETEMCZbrNQ60B/GM0BxCdGkRXA5QwDbmCJE52dtkz3nuvRPVn9Od9sq+4p4uLHFUGAAAAAAAAugYdgE3oblaWgby2Vp9pWFGYdvjRModp6ASkeQSZcbNnO5G/Y4LaAng5Hdu3z/1y9eoi1Sbt0KsjoWAapvf+/tPE2LhG1KGDErUFAAAAAAAAwDD/Dx3aQfSqmhFlAAAAAElFTkSuQmCC;" parent="LYwdU9FZkqODLNg3qWdJ-28" vertex="1">
          <mxGeometry x="10" y="33.960000000000036" width="140" height="22.09" as="geometry" />
        </mxCell>
        <mxCell id="LYwdU9FZkqODLNg3qWdJ-38" value="" style="group;shadow=1;" parent="1" vertex="1" connectable="0">
          <mxGeometry x="415" y="340" width="150" height="99" as="geometry" />
        </mxCell>
        <mxCell id="LYwdU9FZkqODLNg3qWdJ-37" value="&lt;b&gt;LLM&lt;/b&gt;" style="rounded=1;whiteSpace=wrap;html=1;fillColor=none;verticalAlign=top;" parent="LYwdU9FZkqODLNg3qWdJ-38" vertex="1">
          <mxGeometry width="150" height="99" as="geometry" />
        </mxCell>
        <mxCell id="LYwdU9FZkqODLNg3qWdJ-36" value="" style="shape=image;verticalLabelPosition=bottom;labelBackgroundColor=default;verticalAlign=top;aspect=fixed;imageAspect=0;image=https://www.mlwires.com/wp-content/uploads/2024/08/Llama_3.1_featured_image.jpg;clipPath=inset(4.67% 16.67% 23.33% 21% round 5%);" parent="LYwdU9FZkqODLNg3qWdJ-38" vertex="1">
          <mxGeometry x="20" y="29" width="110" height="63.529411764705884" as="geometry" />
        </mxCell>
        <mxCell id="LYwdU9FZkqODLNg3qWdJ-39" style="edgeStyle=orthogonalEdgeStyle;rounded=0;orthogonalLoop=1;jettySize=auto;html=1;exitX=0.25;exitY=1;exitDx=0;exitDy=0;entryX=0.25;entryY=0;entryDx=0;entryDy=0;" parent="1" source="LYwdU9FZkqODLNg3qWdJ-23" target="LYwdU9FZkqODLNg3qWdJ-37" edge="1">
          <mxGeometry relative="1" as="geometry" />
        </mxCell>
        <mxCell id="LYwdU9FZkqODLNg3qWdJ-40" style="edgeStyle=orthogonalEdgeStyle;rounded=0;orthogonalLoop=1;jettySize=auto;html=1;exitX=0.75;exitY=0;exitDx=0;exitDy=0;entryX=0.75;entryY=1;entryDx=0;entryDy=0;" parent="1" source="LYwdU9FZkqODLNg3qWdJ-37" target="LYwdU9FZkqODLNg3qWdJ-23" edge="1">
          <mxGeometry relative="1" as="geometry" />
        </mxCell>
        <mxCell id="fx6HwzHzRY7jB-DfnoHr-1" value="" style="shape=image;verticalLabelPosition=bottom;labelBackgroundColor=default;verticalAlign=top;aspect=fixed;imageAspect=0;image=https://i.ytimg.com/vi/sKyvsdEv6rk/maxresdefault.jpg;" vertex="1" parent="1">
          <mxGeometry x="230" y="249.01" width="86.51" height="48.66" as="geometry" />
        </mxCell>
      </root>
    </mxGraphModel>
  </diagram>
</mxfile>
